<?xml version="1.0" encoding="utf-8"?>
<!-- Generator: Adobe Illustrator 20.1.0, SVG Export Plug-In . SVG Version: 6.00 Build 0)  -->
<svg version="1.1" xmlns="http://www.w3.org/2000/svg" xmlns:xlink="http://www.w3.org/1999/xlink" x="0px" y="0px"
	 viewBox="0 0 805.6 752" style="enable-background:new 0 0 805.6 752;" xml:space="preserve">
<style type="text/css">
	.st0{display:none;fill:#243D51;}
	.st1{fill:#FFFFFF;}
	.st2{fill:#E6E7E8;}
	.st3{fill:#E7E6E6;}
	.st4{fill:#FDBC14;}
	.st5{fill:#E2A913;}
	.st6{fill:#4F4F51;}
	.st7{fill:#5A5A5D;}
	.st8{fill:#00383B;}
	.st9{fill:#004346;}
	.st10{fill:#9D69A2;}
	.st11{fill:#BFBFBF;}
	.st12{fill-rule:evenodd;clip-rule:evenodd;fill:#E35933;}
	.st13{fill-rule:evenodd;clip-rule:evenodd;fill:#FFFFFB;}
	.st14{fill-rule:evenodd;clip-rule:evenodd;fill:#808184;}
	.st15{fill-rule:evenodd;clip-rule:evenodd;fill:#0079B5;}
	.st16{fill-rule:evenodd;clip-rule:evenodd;fill:#FFFFFF;}
	.st17{font-family:'Bebas';}
	.st18{font-size:13.663px;}
	.st19{fill-rule:evenodd;clip-rule:evenodd;fill:#6D6E70;}
	.st20{fill-rule:evenodd;clip-rule:evenodd;fill:#C96C38;}
	.st21{fill-rule:evenodd;clip-rule:evenodd;fill:#BBBDBF;}
	.st22{fill-rule:evenodd;clip-rule:evenodd;fill:#58595B;}
	.st23{fill-rule:evenodd;clip-rule:evenodd;fill:#404041;}
	.st24{fill-rule:evenodd;clip-rule:evenodd;fill:#EDCB48;}
	.st25{fill-rule:evenodd;clip-rule:evenodd;fill:#525556;}
	.st26{fill-rule:evenodd;clip-rule:evenodd;fill:#B8BABC;}
	.st27{fill-rule:evenodd;clip-rule:evenodd;fill:#1A1A1B;}
	.st28{fill-rule:evenodd;clip-rule:evenodd;fill:#E4E8EA;}
	.st29{fill-rule:evenodd;clip-rule:evenodd;fill:#EC454C;}
	.st30{fill-rule:evenodd;clip-rule:evenodd;fill:#47A4AD;}
	.st31{fill-rule:evenodd;clip-rule:evenodd;fill:#F6F5DB;}
	.st32{fill-rule:evenodd;clip-rule:evenodd;fill:#43525A;}
	.st33{fill-rule:evenodd;clip-rule:evenodd;fill:#2B8E99;}
	.st34{fill-rule:evenodd;clip-rule:evenodd;fill:#216B74;}
	.st35{fill-rule:evenodd;clip-rule:evenodd;fill:#26747C;}
	.st36{fill-rule:evenodd;clip-rule:evenodd;fill:#4EA291;}
	.st37{fill-rule:evenodd;clip-rule:evenodd;fill:#F48120;}
	.st38{fill-rule:evenodd;clip-rule:evenodd;fill:#E4EDEE;}
	.st39{fill-rule:evenodd;clip-rule:evenodd;fill:#37A3B2;}
	.st40{fill-rule:evenodd;clip-rule:evenodd;fill:#EC1C24;}
	.st41{fill-rule:evenodd;clip-rule:evenodd;fill:#D0D2D3;}
</style>
<g id="_x31_">
</g>
<g id="_x32_">
	<rect x="-168" y="-52" class="st0" width="1314" height="973"/>
	<g>
		<path class="st1" d="M288.2,45.5c-0.7-5.7-5.9-9.9-11.7-9.4c-1.3,0.1-2.5,0.5-3.6,1c-2.2,1-4,2.8-5.1,5c-1.5-1-3.4-1.6-5.4-1.5
			c-0.1,0-0.2,0-0.3,0l2.7,28.7l0.3,0l10.7-1l12.8-1.2c0.4,0,0.8,0,1.2,0c6-0.5,10.3-5.8,9.8-11.8C299.1,49.5,294,45.1,288.2,45.5z
			 M269.9,54.6C269.9,54.6,269.9,54.6,269.9,54.6C269.9,54.6,270,54.6,269.9,54.6L269.9,54.6z"/>
		<path class="st2" d="M262.1,40.6c-4.8,0.4-8.4,4.7-7.9,9.5c0.1,0.6,0.2,1.1,0.3,1.6c-0.1,0-0.2,0.1-0.3,0.1
			c-1.4-1.1-3.1-1.8-5-1.6c-0.8,0.1-1.6,0.3-2.3,0.6c-1.4,0.7-2.6,1.8-3.3,3.2c-1-0.7-2.3-1.1-3.6-0.9c-3.1,0.3-5.3,3-5,6.1
			c0,0.4,0.1,0.7,0.2,1c-2.3,1-3.9,3.4-3.6,6.1c0.3,3.3,3.3,5.8,6.6,5.5c0.3,0,0.6-0.1,0.8-0.1l9.8-0.9l8.2-0.8c0.2,0,0.5,0,0.7,0
			c0.2,0,0.4,0,0.5-0.1c0.3,0,0.6,0,0.9,0c0.5,0,0.9-0.1,1.3-0.2l4.3-0.4L262.1,40.6C262.1,40.6,262.1,40.6,262.1,40.6z M245,62.1
			C245,62.1,245,62.1,245,62.1C245,62.1,245,62.1,245,62.1L245,62.1z"/>
	</g>
	<g>
		<path class="st2" d="M345.2,116.1c-0.1,0.7-0.1,1.5,0,2.2c-0.1,0-0.3,0.1-0.4,0.1c-1.4-1.8-3.6-3.1-6.1-3.4
			c-1.1-0.1-2.1,0-3.1,0.2c-2,0.5-3.8,1.6-5.1,3.2c-1.1-1.2-2.7-2-4.4-2.2c-4-0.5-7.7,2.4-8.1,6.5c-0.1,0.5-0.1,0.9,0,1.4
			c-3.3,0.7-5.9,3.4-6.3,6.9c-0.5,4.4,2.6,8.3,7,8.8c0.4,0,0.8,0.1,1.1,0l12.9,1.5l10.8,1.2c0.3,0.1,0.6,0.1,1,0.2
			c0.2,0,0.5,0,0.7,0c0.4,0.1,0.8,0.2,1.2,0.2c0.6,0.1,1.2,0.1,1.8,0.1l5.5,0.6l4.3-37.8C351.5,105.3,345.9,109.8,345.2,116.1z
			 M330,129.1C330.1,129.1,330.1,129.1,330,129.1C330.1,129.1,330.1,129.1,330,129.1L330,129.1z"/>
		<path class="st1" d="M390.4,119.3c0.6-7.6-5-14.4-12.6-15.3c-1.7-0.2-3.3-0.1-4.9,0.3c-3.2,0.7-6,2.5-7.9,5.1
			c-1.7-1.7-4-3-6.5-3.4c-0.1,0-0.3,0-0.4-0.1c-0.1,0-0.1,0-0.2,0l-4.3,37.8l0.6,0.1l14.1,1.6l16.9,1.9c0.5,0.1,1,0.2,1.5,0.3
			c7.8,0.9,14.9-4.7,15.8-12.6C403.3,127.3,397.9,120.4,390.4,119.3z M364.2,126.2C364.3,126.1,364.3,126.1,364.2,126.2
			c0.1,0,0.1,0,0.1,0L364.2,126.2z"/>
	</g>
	<g>
		<path class="st1" d="M141.4,659.4c-1.6-5.2-7.1-8.2-12.4-6.8c-1.2,0.3-2.2,0.8-3.2,1.5c-1.9,1.3-3.3,3.3-3.9,5.4
			c-1.3-0.6-2.8-0.8-4.2-0.7l7,26.1l8.8-2.4l11.7-3.2c0.4-0.1,0.7-0.1,1.1-0.2c5.4-1.5,8.6-7.1,7.2-12.5
			C152.1,661.4,146.7,658.2,141.4,659.4z M125.9,670.9C125.9,670.9,125.9,670.8,125.9,670.9C125.9,670.8,126,670.8,125.9,670.9
			L125.9,670.9z"/>
		<path class="st2" d="M116.7,659c-0.1,0-0.2,0-0.3,0.1c-4.4,1.2-7,5.7-5.8,10.1c0.1,0.5,0.3,1,0.6,1.5c-0.1,0.1-0.2,0.1-0.2,0.2
			c-1.4-0.8-3.2-1.1-4.9-0.6c-0.7,0.2-1.4,0.5-2,0.9c-1.2,0.8-2.1,2.1-2.5,3.5c-1.1-0.5-2.3-0.6-3.5-0.3c-2.8,0.8-4.5,3.6-3.7,6.4
			c0.1,0.3,0.2,0.6,0.4,0.9c-2,1.3-3,3.8-2.4,6.2c0.8,3,3.9,4.8,7,4c0.3-0.1,0.5-0.2,0.8-0.3l8.9-2.4l7.5-2c0.2,0,0.5-0.1,0.7-0.1
			c0.2,0,0.3-0.1,0.5-0.2c0.3,0,0.6-0.1,0.9-0.2c0.4-0.1,0.8-0.3,1.2-0.4l4.2-1.1l1-0.3l-7-26.1C117.4,658.9,117.1,659,116.7,659z
			 M104,681.8C104,681.8,104,681.8,104,681.8C104,681.8,104,681.8,104,681.8L104,681.8z"/>
	</g>
	<g>
		<path class="st1" d="M115.3,512.7c-2.7-0.4-5.2,1.5-5.6,4.2c-0.1,0.6-0.1,1.2,0,1.7c0.2,1.1,0.8,2.2,1.6,2.9
			c-0.5,0.5-0.9,1.1-1.2,1.8l13.2,2.3l0.8-4.5l1-5.9c0-0.2,0.1-0.4,0.1-0.5c0.5-2.7-1.4-5.4-4.1-5.8
			C118.4,508.3,115.9,510.1,115.3,512.7z M117.2,522.1C117.2,522.1,117.2,522.1,117.2,522.1C117.2,522.1,117.2,522,117.2,522.1
			L117.2,522.1z"/>
		<path class="st2" d="M110,523.7c0,0.1,0,0.1,0,0.2c-0.4,2.2,1.1,4.3,3.3,4.7c0.3,0,0.5,0.1,0.8,0.1c0,0,0,0.1,0,0.1
			c-0.7,0.5-1.2,1.2-1.3,2.1c-0.1,0.4-0.1,0.7,0,1.1c0.1,0.7,0.5,1.4,1,1.8c-0.4,0.4-0.8,0.9-0.9,1.5c-0.2,1.4,0.7,2.8,2.1,3
			c0.2,0,0.3,0,0.5,0c0.2,1.2,1.1,2.2,2.3,2.4c1.5,0.3,3-0.8,3.3-2.3c0-0.1,0-0.3,0-0.4l0.8-4.5l0.6-3.8c0-0.1,0.1-0.2,0.1-0.3
			c0-0.1,0-0.2,0-0.2c0-0.1,0.1-0.3,0.1-0.4c0-0.2,0.1-0.4,0.1-0.6l0.4-2.1l0.1-0.5l-13.2-2.3C110.1,523.4,110,523.6,110,523.7z
			 M117.6,534.2C117.6,534.2,117.6,534.2,117.6,534.2C117.6,534.2,117.6,534.2,117.6,534.2L117.6,534.2z"/>
	</g>
	<g>
		<path class="st1" d="M151.7,143.1c-1.4-2.3-4.4-3.1-6.8-1.8c-0.5,0.3-1,0.7-1.4,1.1c-0.8,0.9-1.2,1.9-1.3,3.1
			c-0.7-0.1-1.4-0.1-2.1,0.2l6.4,11.7l4-2.2l5.3-2.9c0.2-0.1,0.3-0.1,0.5-0.2c2.4-1.3,3.3-4.4,2-6.9
			C157.1,142.8,154.2,141.9,151.7,143.1z M145.6,150.5C145.6,150.5,145.6,150.4,145.6,150.5C145.6,150.4,145.6,150.4,145.6,150.5
			L145.6,150.5z"/>
		<path class="st2" d="M139.8,145.8c0,0-0.1,0-0.1,0.1c-2,1.1-2.7,3.6-1.6,5.6c0.1,0.2,0.3,0.4,0.4,0.6c0,0-0.1,0.1-0.1,0.1
			c-0.8-0.2-1.7-0.2-2.5,0.3c-0.3,0.2-0.6,0.4-0.9,0.7c-0.5,0.5-0.8,1.2-0.8,2c-0.6-0.1-1.2,0-1.7,0.3c-1.3,0.7-1.7,2.3-1,3.5
			c0.1,0.1,0.2,0.3,0.3,0.4c-0.8,0.9-1,2.2-0.4,3.3c0.7,1.4,2.5,1.9,3.8,1.1c0.1-0.1,0.2-0.1,0.3-0.2l4-2.2l3.4-1.8
			c0.1,0,0.2-0.1,0.3-0.1c0.1,0,0.1-0.1,0.2-0.1c0.1-0.1,0.3-0.1,0.4-0.2c0.2-0.1,0.4-0.2,0.5-0.3l1.9-1l0.4-0.2l-6.4-11.7
			C140.1,145.7,139.9,145.8,139.8,145.8z M136.3,158.3C136.3,158.3,136.3,158.3,136.3,158.3C136.3,158.3,136.3,158.3,136.3,158.3
			L136.3,158.3z"/>
	</g>
	<g>
		<path class="st1" d="M34.7,247.4c-1.7-2.1-4.8-2.4-7-0.8c-0.5,0.4-0.9,0.8-1.2,1.3c-0.6,1-0.9,2.1-0.8,3.2c-0.7,0-1.4,0.1-2.1,0.5
			l8.2,10.6l3.6-2.8l4.8-3.7c0.2-0.1,0.3-0.2,0.5-0.3c2.2-1.7,2.6-4.9,0.9-7.1C40,246.3,36.9,245.8,34.7,247.4z M29.8,255.6
			C29.8,255.6,29.8,255.6,29.8,255.6C29.8,255.6,29.8,255.6,29.8,255.6L29.8,255.6z"/>
		<path class="st2" d="M23.4,251.9c0,0-0.1,0.1-0.1,0.1c-1.8,1.4-2.1,3.9-0.7,5.7c0.2,0.2,0.3,0.4,0.5,0.6c0,0,0,0.1-0.1,0.1
			c-0.8-0.1-1.7,0.1-2.4,0.6c-0.3,0.2-0.6,0.5-0.7,0.8c-0.4,0.6-0.6,1.3-0.5,2.1c-0.6,0-1.2,0.2-1.7,0.5c-1.1,0.9-1.4,2.5-0.5,3.7
			c0.1,0.1,0.2,0.3,0.3,0.4c-0.7,1-0.7,2.3,0.1,3.3c0.9,1.2,2.7,1.5,4,0.5c0.1-0.1,0.2-0.2,0.3-0.3l3.6-2.8l3-2.3
			c0.1-0.1,0.2-0.1,0.3-0.2c0.1-0.1,0.1-0.1,0.2-0.2c0.1-0.1,0.2-0.2,0.4-0.2c0.2-0.1,0.3-0.3,0.5-0.4l1.7-1.3l0.4-0.3l-8.2-10.6
			C23.6,251.7,23.5,251.8,23.4,251.9z M21.9,264.8C21.9,264.8,21.9,264.8,21.9,264.8C21.9,264.8,21.9,264.8,21.9,264.8L21.9,264.8z"
			/>
	</g>
	<g>
		<path class="st1" d="M58.1,94.3c-3.6-6-11.3-8-17.4-4.6c-1.4,0.8-2.5,1.7-3.5,2.8c-1.9,2.2-3.1,5-3.2,8c-1.8-0.3-3.7-0.2-5.5,0.5
			l16.8,30.2l10.2-5.7l13.6-7.5c0.4-0.2,0.9-0.4,1.3-0.6c6.3-3.5,8.6-11.4,5.1-17.7C72,93.4,64.3,91.1,58.1,94.3z M42.4,113.3
			C42.4,113.2,42.4,113.2,42.4,113.3C42.4,113.2,42.4,113.2,42.4,113.3L42.4,113.3z"/>
		<path class="st2" d="M27.4,101.4c-0.1,0.1-0.2,0.1-0.4,0.2c-5.1,2.8-6.9,9.2-4.1,14.3c0.3,0.6,0.7,1.1,1.1,1.7
			c-0.1,0.1-0.2,0.2-0.2,0.3c-2-0.6-4.3-0.4-6.3,0.7c-0.9,0.5-1.6,1.1-2.2,1.8c-1.2,1.4-2,3.2-2,5.1c-1.5-0.3-3,0-4.5,0.7
			c-3.2,1.8-4.4,5.9-2.6,9.1c0.2,0.4,0.5,0.7,0.7,1c-2.1,2.2-2.6,5.7-1,8.5c1.9,3.5,6.4,4.8,9.9,2.8c0.3-0.2,0.6-0.4,0.9-0.6
			l10.3-5.7l8.6-4.8c0.3-0.1,0.5-0.2,0.8-0.4c0.2-0.1,0.4-0.2,0.5-0.3c0.3-0.2,0.7-0.3,1-0.5c0.5-0.3,0.9-0.6,1.3-0.9l4.9-2.7
			l1.1-0.6l-16.8-30.2C28.1,101,27.7,101.2,27.4,101.4z M18.6,133.6C18.6,133.6,18.6,133.5,18.6,133.6
			C18.6,133.5,18.6,133.5,18.6,133.6L18.6,133.6z"/>
	</g>
	<g>
		<path class="st1" d="M13.7,555.2c-2.7,0.1-4.8,2.4-4.8,5.1c0,0.6,0.1,1.2,0.3,1.7c0.4,1.1,1.2,2,2.1,2.6c-0.4,0.6-0.7,1.2-0.8,2
			l13.4-0.2l-0.1-4.5l-0.1-6c0-0.2,0-0.4,0-0.5c0-2.8-2.3-5-5.1-5C16,550.3,13.8,552.5,13.7,555.2z M17.3,564
			C17.3,564,17.3,564,17.3,564C17.3,564,17.3,564,17.3,564L17.3,564z"/>
		<path class="st2" d="M10.5,567c0,0.1,0,0.1,0,0.2c0,2.3,1.9,4.1,4.1,4c0.3,0,0.5,0,0.8-0.1c0,0,0,0.1,0.1,0.1
			c-0.6,0.6-0.9,1.4-0.9,2.3c0,0.4,0.1,0.7,0.2,1.1c0.3,0.7,0.7,1.3,1.4,1.6c-0.4,0.5-0.6,1-0.6,1.7c0,1.4,1.2,2.6,2.6,2.6
			c0.2,0,0.3,0,0.5-0.1c0.4,1.1,1.5,1.9,2.7,1.9c1.6,0,2.8-1.3,2.8-2.8c0-0.1,0-0.3,0-0.4l-0.1-4.6l0-3.8c0-0.1,0-0.2,0-0.3
			c0-0.1,0-0.2,0-0.2c0-0.1,0-0.3,0-0.4c0-0.2,0-0.4-0.1-0.6l0-2.2l0-0.5l-13.4,0.2C10.5,566.6,10.5,566.8,10.5,567z M19.8,575.9
			C19.8,575.9,19.8,575.9,19.8,575.9C19.8,575.9,19.8,575.9,19.8,575.9L19.8,575.9z"/>
	</g>
	<g>
		<path class="st1" d="M656.8,146.3c1-2.5-0.2-5.4-2.7-6.5c-0.6-0.2-1.1-0.4-1.7-0.4c-1.1-0.1-2.3,0.2-3.2,0.9
			c-0.3-0.6-0.8-1.2-1.4-1.6l-5.4,12.3l4.1,1.8l5.5,2.4c0.2,0.1,0.3,0.2,0.5,0.2c2.6,1.1,5.5-0.1,6.6-2.6
			C660.3,150.3,659.2,147.5,656.8,146.3z M647.2,145.9C647.2,145.9,647.2,145.9,647.2,145.9C647.2,145.9,647.2,145.9,647.2,145.9
			L647.2,145.9z"/>
		<path class="st2" d="M647.3,138.5c0,0-0.1,0-0.1-0.1c-2.1-0.9-4.5,0-5.4,2.1c-0.1,0.2-0.2,0.5-0.2,0.7c0,0-0.1,0-0.1,0
			c-0.3-0.8-0.9-1.4-1.7-1.8c-0.4-0.2-0.7-0.2-1.1-0.3c-0.7,0-1.5,0.2-2,0.6c-0.3-0.5-0.7-0.9-1.3-1.2c-1.3-0.6-2.9,0-3.4,1.3
			c-0.1,0.2-0.1,0.3-0.2,0.5c-1.2-0.1-2.4,0.5-2.9,1.7c-0.6,1.4,0,3.1,1.5,3.7c0.1,0.1,0.2,0.1,0.4,0.1l4.2,1.8l3.5,1.5
			c0.1,0.1,0.2,0.1,0.3,0.2c0.1,0,0.2,0.1,0.2,0.1c0.1,0.1,0.3,0.1,0.4,0.2c0.2,0.1,0.4,0.2,0.6,0.2l2,0.9l0.5,0.2l5.4-12.3
			C647.6,138.6,647.5,138.6,647.3,138.5z M635.3,143.4C635.3,143.3,635.4,143.3,635.3,143.4C635.4,143.3,635.4,143.4,635.3,143.4
			L635.3,143.4z"/>
	</g>
	<g>
		<path class="st1" d="M654.4,452.4c2.6-0.8,4.1-3.5,3.3-6.1c-0.2-0.6-0.4-1.1-0.7-1.6c-0.7-0.9-1.6-1.6-2.7-1.9
			c0.3-0.6,0.4-1.4,0.3-2.1l-12.9,3.5l1.2,4.4l1.6,5.8c0,0.2,0.1,0.4,0.1,0.5c0.7,2.7,3.5,4.3,6.2,3.5
			C653.5,457.7,655,455,654.4,452.4z M648.7,444.7C648.7,444.7,648.7,444.7,648.7,444.7C648.7,444.7,648.7,444.7,648.7,444.7
			L648.7,444.7z"/>
		<path class="st2" d="M654.6,440.1c0,0,0-0.1,0-0.1c-0.6-2.2-2.8-3.5-5-2.9c-0.3,0.1-0.5,0.2-0.7,0.3c0,0-0.1-0.1-0.1-0.1
			c0.4-0.7,0.5-1.6,0.3-2.4c-0.1-0.4-0.3-0.7-0.5-1c-0.4-0.6-1-1-1.7-1.2c0.2-0.5,0.3-1.1,0.1-1.7c-0.4-1.4-1.8-2.2-3.2-1.8
			c-0.2,0-0.3,0.1-0.5,0.2c-0.7-1-1.9-1.5-3.1-1.2c-1.5,0.4-2.4,2-2,3.5c0,0.1,0.1,0.3,0.1,0.4l1.2,4.4l1,3.7c0,0.1,0,0.2,0.1,0.3
			c0,0.1,0,0.2,0.1,0.2c0,0.1,0.1,0.3,0.1,0.4c0.1,0.2,0.1,0.4,0.2,0.6l0.6,2.1l0.1,0.5l12.9-3.5
			C654.6,440.5,654.6,440.3,654.6,440.1z M643.2,433.9C643.2,433.9,643.3,433.9,643.2,433.9C643.3,433.9,643.2,433.9,643.2,433.9
			L643.2,433.9z"/>
	</g>
	<g>
		<path class="st1" d="M620.5,625.8c2.1-1.7,2.6-4.7,1-6.9c-0.4-0.5-0.8-0.9-1.2-1.2c-0.9-0.6-2.1-0.9-3.2-0.9
			c0-0.7-0.1-1.4-0.4-2.1l-10.8,7.9l2.7,3.7l3.5,4.9c0.1,0.2,0.2,0.3,0.3,0.5c1.6,2.3,4.8,2.8,7,1.1
			C621.5,631.1,622,628.1,620.5,625.8z M612.5,620.7C612.5,620.7,612.5,620.7,612.5,620.7C612.5,620.7,612.5,620.7,612.5,620.7
			L612.5,620.7z"/>
		<path class="st2" d="M616.3,614.3c0,0-0.1-0.1-0.1-0.1c-1.3-1.8-3.9-2.2-5.7-0.9c-0.2,0.2-0.4,0.3-0.6,0.5c0,0-0.1-0.1-0.1-0.1
			c0.1-0.8,0-1.7-0.6-2.4c-0.2-0.3-0.5-0.6-0.8-0.8c-0.6-0.4-1.3-0.6-2-0.6c0-0.6-0.1-1.2-0.5-1.7c-0.8-1.2-2.5-1.4-3.6-0.6
			c-0.1,0.1-0.3,0.2-0.4,0.3c-1-0.7-2.3-0.7-3.3,0c-1.3,0.9-1.5,2.7-0.6,3.9c0.1,0.1,0.2,0.2,0.3,0.3l2.7,3.7l2.2,3.1
			c0.1,0.1,0.1,0.2,0.2,0.3c0,0.1,0.1,0.1,0.2,0.2c0.1,0.1,0.2,0.2,0.2,0.4c0.1,0.2,0.3,0.3,0.4,0.5l1.3,1.8l0.3,0.4l10.8-7.9
			C616.5,614.6,616.4,614.5,616.3,614.3z M603.5,612.4C603.5,612.4,603.5,612.4,603.5,612.4C603.6,612.4,603.6,612.5,603.5,612.4
			L603.5,612.4z"/>
	</g>
	<g>
		<path class="st1" d="M168.4,225.5c-0.7-2.6-3.4-4.2-6.1-3.5c-0.6,0.1-1.1,0.4-1.6,0.7c-1,0.6-1.7,1.6-2,2.7
			c-0.6-0.3-1.4-0.4-2.1-0.4l3.2,13l4.4-1.1l5.8-1.4c0.2,0,0.4-0.1,0.5-0.1c2.7-0.7,4.4-3.4,3.7-6.1
			C173.7,226.6,171,224.9,168.4,225.5z M160.6,231C160.6,231,160.6,231,160.6,231C160.6,231,160.6,231,160.6,231L160.6,231z"/>
		<path class="st2" d="M156.2,225c0,0-0.1,0-0.1,0c-2.2,0.5-3.5,2.8-3,4.9c0.1,0.3,0.1,0.5,0.3,0.7c0,0-0.1,0.1-0.1,0.1
			c-0.7-0.4-1.6-0.6-2.4-0.4c-0.4,0.1-0.7,0.2-1,0.4c-0.6,0.4-1.1,1-1.3,1.7c-0.5-0.2-1.1-0.3-1.7-0.2c-1.4,0.3-2.3,1.8-1.9,3.2
			c0,0.2,0.1,0.3,0.2,0.5c-1,0.6-1.5,1.9-1.2,3.1c0.4,1.5,1.9,2.4,3.4,2.1c0.1,0,0.3-0.1,0.4-0.1l4.5-1.1l3.7-0.9
			c0.1,0,0.2,0,0.3-0.1c0.1,0,0.2,0,0.2-0.1c0.1,0,0.3,0,0.4-0.1c0.2-0.1,0.4-0.1,0.6-0.2l2.1-0.5l0.5-0.1l-3.2-13
			C156.5,225,156.3,225,156.2,225z M149.6,236.2C149.6,236.2,149.6,236.2,149.6,236.2C149.6,236.2,149.6,236.2,149.6,236.2
			L149.6,236.2z"/>
	</g>
	<g>
		<path class="st1" d="M91.8,38.1c-1.9-4.1-6.7-6-10.9-4.2c-0.9,0.4-1.7,0.9-2.4,1.6c-1.4,1.3-2.3,3-2.6,4.9
			c-1.1-0.3-2.4-0.4-3.5-0.1l8.6,20.6l7-2.9l9.3-3.9c0.3-0.1,0.6-0.2,0.9-0.3c4.3-1.8,6.3-6.7,4.5-11C100.8,38.6,96,36.5,91.8,38.1z
			 M80.3,49.2C80.3,49.2,80.3,49.2,80.3,49.2C80.3,49.2,80.3,49.2,80.3,49.2L80.3,49.2z"/>
		<path class="st2" d="M71.5,40.5c-0.1,0-0.2,0.1-0.2,0.1c-3.5,1.5-5.1,5.5-3.7,8.9c0.2,0.4,0.4,0.8,0.6,1.1
			c-0.1,0.1-0.1,0.1-0.2,0.2c-1.3-0.5-2.7-0.6-4.1,0c-0.6,0.2-1.1,0.6-1.6,1c-0.9,0.8-1.5,1.9-1.7,3.1c-0.9-0.3-2-0.2-2.9,0.2
			c-2.2,0.9-3.3,3.5-2.3,5.7c0.1,0.3,0.2,0.5,0.4,0.7c-1.5,1.3-2.1,3.5-1.3,5.4c1,2.4,3.8,3.5,6.2,2.5c0.2-0.1,0.4-0.2,0.6-0.3
			l7.1-3l5.9-2.5c0.2-0.1,0.4-0.1,0.5-0.2c0.1-0.1,0.3-0.1,0.4-0.2c0.2-0.1,0.5-0.2,0.7-0.2c0.3-0.1,0.6-0.3,0.9-0.5l3.4-1.4
			l0.8-0.3l-8.6-20.6C72,40.4,71.7,40.4,71.5,40.5z M63.5,60.6C63.6,60.6,63.6,60.6,63.5,60.6C63.6,60.6,63.6,60.6,63.5,60.6
			L63.5,60.6z"/>
	</g>
	<g>
		<path class="st1" d="M493,75.4c0.2-2.7-1.7-5.1-4.4-5.4c-0.6-0.1-1.2,0-1.7,0.1c-1.1,0.3-2.1,0.9-2.8,1.8
			c-0.5-0.5-1.1-0.9-1.8-1.1L480.6,84l4.5,0.5l6,0.7c0.2,0,0.4,0.1,0.5,0.1c2.8,0.3,5.3-1.6,5.6-4.4C497.6,78.2,495.7,75.8,493,75.4
			z M483.8,77.7C483.8,77.7,483.8,77.7,483.8,77.7C483.8,77.7,483.8,77.7,483.8,77.7L483.8,77.7z"/>
		<path class="st2" d="M481.7,70.6c0,0-0.1,0-0.2,0c-2.2-0.3-4.3,1.3-4.5,3.6c0,0.3,0,0.5,0,0.8c0,0-0.1,0-0.1,0
			c-0.5-0.6-1.3-1.1-2.1-1.2c-0.4,0-0.8,0-1.1,0.1c-0.7,0.2-1.3,0.6-1.8,1.1c-0.4-0.4-0.9-0.7-1.6-0.8c-1.4-0.2-2.7,0.8-2.9,2.3
			c0,0.2,0,0.3,0,0.5c-1.2,0.2-2.1,1.2-2.3,2.4c-0.2,1.5,0.9,2.9,2.5,3.1c0.1,0,0.3,0,0.4,0l4.6,0.5l3.8,0.5c0.1,0,0.2,0,0.3,0.1
			c0.1,0,0.2,0,0.2,0c0.1,0,0.3,0.1,0.4,0.1c0.2,0,0.4,0,0.6,0l2.2,0.3l0.5,0.1l1.6-13.3C482.1,70.7,481.9,70.6,481.7,70.6z
			 M471.7,78.7C471.7,78.7,471.7,78.7,471.7,78.7C471.7,78.7,471.7,78.7,471.7,78.7L471.7,78.7z"/>
	</g>
	<g>
		<path class="st2" d="M758,173.9c-0.2,0.5-0.3,1-0.4,1.5c-0.1,0-0.2,0-0.3,0c-0.7-1.5-2-2.7-3.7-3.3c-0.7-0.2-1.5-0.4-2.2-0.3
			c-1.5,0-2.9,0.6-4,1.5c-0.6-1-1.6-1.8-2.8-2.2c-2.8-0.9-5.7,0.6-6.7,3.3c-0.1,0.3-0.2,0.6-0.2,1c-2.4,0-4.6,1.5-5.4,3.9
			c-1,3,0.6,6.2,3.6,7.2c0.3,0.1,0.5,0.2,0.8,0.2l8.8,2.9l7.3,2.5c0.2,0.1,0.4,0.2,0.7,0.3c0.2,0.1,0.3,0.1,0.5,0.1
			c0.3,0.1,0.5,0.2,0.8,0.3c0.4,0.1,0.8,0.2,1.2,0.3l3.7,1.2l8.6-25.7C763.9,167.4,759.4,169.7,758,173.9z M745.5,180.8
			C745.5,180.8,745.5,180.8,745.5,180.8C745.5,180.8,745.5,180.8,745.5,180.8L745.5,180.8z"/>
		<path class="st1" d="M789,182.9c1.5-5.2-1.3-10.8-6.5-12.5c-1.1-0.4-2.3-0.5-3.5-0.5c-2.3,0.1-4.5,0.9-6.3,2.3
			c-0.9-1.5-2.3-2.7-4.1-3.3c-0.1,0-0.2-0.1-0.3-0.1c-0.1,0-0.1,0-0.2-0.1l-8.6,25.7l0.5,0.2l9.6,3.2l11.5,3.9
			c0.3,0.2,0.7,0.3,1,0.4c5.3,1.8,11.1-1.1,12.9-6.4C796.8,190.4,794.1,184.8,789,182.9z M769.8,183.8
			C769.8,183.8,769.8,183.8,769.8,183.8C769.8,183.8,769.8,183.8,769.8,183.8L769.8,183.8z"/>
	</g>
	<g>
		<path class="st1" d="M41,380.9c-3.1-2.6-7.8-2.4-10.6,0.7c-0.6,0.7-1.1,1.4-1.4,2.2c-0.7,1.6-0.8,3.4-0.3,5
			c-1,0.1-1.9,0.5-2.7,1.1l14.9,13.6l4.4-4.8l6.1-6.7c0.2-0.2,0.4-0.4,0.6-0.6c2.8-3.1,2.6-7.9-0.5-10.8
			C48.5,377.8,43.8,378,41,380.9z M35.8,394.4C35.8,394.4,35.8,394.4,35.8,394.4C35.8,394.4,35.8,394.4,35.8,394.4L35.8,394.4z"/>
		<path class="st2" d="M25.2,390.6c-0.1,0.1-0.1,0.1-0.2,0.2c-2.3,2.5-2.1,6.4,0.4,8.7c0.3,0.3,0.6,0.5,0.9,0.7
			c0,0.1-0.1,0.1-0.1,0.2c-1.2,0.1-2.5,0.6-3.4,1.6c-0.4,0.4-0.7,0.9-0.9,1.4c-0.4,1-0.5,2.2-0.2,3.2c-0.9,0.1-1.7,0.5-2.3,1.2
			c-1.5,1.6-1.4,4.1,0.3,5.6c0.2,0.2,0.4,0.3,0.6,0.4c-0.7,1.6-0.4,3.6,1,4.9c1.7,1.6,4.4,1.5,6-0.3c0.1-0.1,0.3-0.3,0.4-0.5
			l4.7-5.1l3.9-4.3c0.1-0.1,0.3-0.2,0.4-0.4c0.1-0.1,0.2-0.2,0.2-0.3c0.2-0.1,0.3-0.3,0.5-0.5c0.2-0.2,0.4-0.5,0.6-0.7l2.2-2.4
			l0.7-0.8L26,389.9C25.7,390.1,25.5,390.3,25.2,390.6z M26.3,410.1C26.3,410.1,26.3,410.1,26.3,410.1
			C26.3,410.1,26.3,410.1,26.3,410.1L26.3,410.1z"/>
	</g>
	<g>
		<path class="st3" d="M124.9,274.3c-1.5-0.4-3-0.2-4.5,0.5c-3.4,1.6-4.8,5.6-3.2,9c0.2,0.4,0.4,0.8,0.7,1.1
			c-2.2,2.1-2.9,5.5-1.5,8.4c1.7,3.6,6.1,5.2,9.7,3.4c0.3-0.2,0.6-0.3,0.9-0.5l10.6-5.1l-10.4-21.7
			C125.9,270.8,125.1,272.5,124.9,274.3z M129.8,282.8C129.8,282.8,129.8,282.8,129.8,282.8C129.8,282.8,129.8,282.8,129.8,282.8
			L129.8,282.8z"/>
		<path class="st1" d="M140.6,271.3c-2.1-3.9-6.9-5.6-10.9-3.6c-0.9,0.4-1.7,1-2.3,1.7c0,0,0,0-0.1,0.1l10.4,21.7l0.1,0l8.9-4.3
			c0.3-0.1,0.6-0.2,0.8-0.3c4.1-2,5.9-7,3.9-11.1C149.4,271.3,144.6,269.5,140.6,271.3z"/>
	</g>
	<g>
		<path class="st3" d="M589.2,28.3c-0.9-1.3-2.2-2.3-3.8-2.7c-3.7-1.1-7.5,1-8.6,4.7c-0.1,0.4-0.2,0.9-0.2,1.3c-3.2,0.1-6,2.2-7,5.4
			c-1.2,4,1.1,8.1,5.1,9.3c0.3,0.1,0.7,0.2,1,0.2l11.6,3.4l6.9-23.7C592.4,26.2,590.6,27,589.2,28.3z M587.1,38.1
			C587.1,38.1,587.1,38.1,587.1,38.1C587.1,38.1,587.1,38.1,587.1,38.1L587.1,38.1z"/>
		<path class="st1" d="M603.2,36.7c1.1-4.4-1.5-9-5.9-10.3c-1-0.3-2-0.4-2.9-0.3c0,0-0.1,0-0.1,0l-6.9,23.7l0.1,0l9.8,2.8
			c0.3,0.1,0.6,0.2,0.9,0.3c4.5,1.3,9.3-1.3,10.6-5.8C610,42.7,607.5,38.1,603.2,36.7z"/>
	</g>
	<path class="st1" d="M81.6,497.4c3-0.4,5.6-0.8,7.7-1.3c0.4-0.1,0.8-0.2,1.2-0.3l-0.4-2c-0.4,0.1-0.8,0.2-1.2,0.3
		c-2,0.4-4.6,0.9-7.6,1.3L81.6,497.4z"/>
	<path class="st1" d="M56.2,428.9l1.3,1.5c2.5-2.1,4.7-4.1,6.7-6.1l-1.4-1.4C60.9,424.8,58.7,426.8,56.2,428.9z"/>
	<path class="st1" d="M65,261.9l-0.9-1.8c-2.5,1.2-5.2,2.7-7.9,4.5l1.1,1.7C60,264.5,62.6,263,65,261.9z"/>
	<path class="st1" d="M77.5,258.1c1.5-0.1,2.9-0.1,4.4-0.1l0-2c-1.5,0-3,0-4.5,0.1c-1.4,0.1-3,0.3-4.6,0.7l0.5,1.9
		C74.7,258.4,76.2,258.2,77.5,258.1z"/>
	<path class="st1" d="M81.3,592.7c1-2.9,2.4-5.5,4-7.7l-1.6-1.2c-1.7,2.4-3.2,5.1-4.3,8.2L81.3,592.7z"/>
	<path class="st1" d="M68.8,416.3l1.6,1.3c2.1-2.6,3.8-5.1,5.1-7.6l-1.8-0.9C72.5,411.4,70.8,413.9,68.8,416.3z"/>
	<path class="st1" d="M50,271.4l-1.2-1.6c-2.3,1.8-4.7,3.7-7,5.7L43,277C45.3,275,47.7,273.1,50,271.4z"/>
	<path class="st1" d="M70.9,375.6l-1.5,1.3c2,2.3,3.6,4.8,4.9,7.2l1.8-0.9C74.7,380.6,73,378,70.9,375.6z"/>
	<path class="st1" d="M64.3,369.2c-2.3-1.9-4.9-3.6-7.5-5.2l-1,1.7c2.6,1.5,5,3.2,7.3,5L64.3,369.2z"/>
	<path class="st1" d="M35,281.6c-2.2,2.1-4.3,4.3-6.3,6.5l1.5,1.4c2-2.2,4.1-4.3,6.3-6.4L35,281.6z"/>
	<path class="st1" d="M9.5,471.1c-1.5,3.2-2.2,6.1-2.2,8.8l0,0.3l2,0l0-0.3c0-2.4,0.7-5.1,2.1-7.9L9.5,471.1z"/>
	<path class="st1" d="M36.1,447l-1.2-1.6c-3,2.2-5.2,3.9-7.2,5.5l1.2,1.6C30.9,450.9,33.1,449.2,36.1,447z"/>
	<path class="st1" d="M22.7,294.9c-2,2.4-3.9,4.8-5.6,7.2l1.6,1.2c1.7-2.3,3.5-4.7,5.5-7.1L22.7,294.9z"/>
	<path class="st1" d="M42.1,440l1.2,1.6c2.9-2.2,5.1-3.9,7.2-5.5l-1.2-1.6C47.2,436.1,45,437.8,42.1,440z"/>
	<path class="st1" d="M48.6,360c-3-1.2-6-2.1-8.8-2.6l-0.4,2c2.7,0.5,5.5,1.4,8.4,2.5L48.6,360z"/>
	<path class="st1" d="M30.8,356.1c-3.3-0.6-6.1-1.2-8.6-2.1l-0.6,1.9c2.6,0.9,5.5,1.6,8.9,2.1L30.8,356.1z"/>
	<path class="st1" d="M189.5,203.2c0.7,2.8,2,5.7,3.7,8.5l1.7-1c-1.6-2.7-2.8-5.3-3.4-8L189.5,203.2z"/>
	<path class="st1" d="M100,258.1c-2.9-0.7-5.9-1.3-9-1.6l-0.2,2c3,0.4,5.9,0.9,8.7,1.6L100,258.1z"/>
	<path class="st1" d="M257.5,163.7c-3.2-0.4-6.2-0.7-9-0.9l-0.1,2c2.8,0.2,5.7,0.5,8.9,0.9L257.5,163.7z"/>
	<path class="st1" d="M205.9,173.7l-1.1-1.7c-2.7,1.8-5.1,3.7-7.2,5.7l1.4,1.4C200.9,177.3,203.2,175.5,205.9,173.7z"/>
	<path class="st1" d="M193.6,186l-1.7-1c-1.6,2.8-2.6,5.8-3,8.8l2,0.3C191.2,191.3,192.1,188.6,193.6,186z"/>
	<path class="st1" d="M133.6,295.7l2-0.1c-0.2-3.1-0.8-6.1-1.8-9.1l-1.9,0.7C132.9,290,133.5,292.7,133.6,295.7z"/>
	<path class="st1" d="M239.4,164.5l0-2c-3.2,0-6.2,0.2-9.1,0.5l0.2,2C233.3,164.6,236.3,164.5,239.4,164.5z"/>
	<path class="st1" d="M221.8,166.4l-0.5-1.9c-3.1,0.8-6,1.8-8.7,3l0.8,1.8C216.1,168.2,218.9,167.2,221.8,166.4z"/>
	<path class="st1" d="M237.7,240.5c-3.1-1.1-5.8-2.1-8.4-3.2l-0.8,1.9c2.6,1,5.3,2.1,8.5,3.2L237.7,240.5z"/>
	<path class="st1" d="M200.1,217.7l-1.5,1.3c1.9,2.2,4.2,4.3,6.6,6.3l1.3-1.5C204.1,221.8,202,219.8,200.1,217.7z"/>
	<path class="st1" d="M116.8,265.3c-2.5-1.6-5.2-3.1-8.1-4.3l-0.8,1.8c2.8,1.2,5.4,2.6,7.8,4.1L116.8,265.3z"/>
	<path class="st1" d="M14.5,350.3c-2.4-1.8-4.2-3.8-5.5-6.4l-1.8,0.9c1.4,2.8,3.5,5.2,6.1,7.1L14.5,350.3z"/>
	<path class="st1" d="M99.3,493.7c3.3-0.8,6-1.5,8.7-2l-0.4-2c-2.8,0.5-5.5,1.2-8.8,2L99.3,493.7z"/>
	<path class="st1" d="M122.5,272.5c1.8,1.8,3.4,3.8,4.8,5.9c0.2,0.3,0.4,0.7,0.6,1l1.7-1.1c-0.2-0.3-0.4-0.7-0.7-1
		c-1.5-2.2-3.2-4.3-5.1-6.2L122.5,272.5z"/>
	<path class="st1" d="M135,304.7l-2-0.3c-0.5,3-1.3,6.1-1.9,8.7l1.9,0.5C133.7,310.9,134.5,307.8,135,304.7z"/>
	<path class="st1" d="M127.1,330.7l2,0.3c0.4-2.9,1-5.8,1.7-8.7l-1.9-0.5C128.1,324.8,127.5,327.8,127.1,330.7z"/>
	<path class="st1" d="M127.8,358c0.7,3,1.6,6,2.7,8.7l1.9-0.7c-1.1-2.7-1.9-5.5-2.6-8.4L127.8,358z"/>
	<path class="st1" d="M221.3,233.6c-2.6-1.4-5.2-2.9-7.7-4.5l-1.1,1.7c2.5,1.7,5.1,3.2,7.8,4.6L221.3,233.6z"/>
	<path class="st1" d="M90.6,577.5l1,1.7c2.3-1.4,5-2.4,8.1-3.1l-0.4-2C95.9,574.9,93.1,576,90.6,577.5z"/>
	<path class="st1" d="M103.3,645.1c2.1,1.4,4.7,3.2,7.1,5.3l1.3-1.5c-2.5-2.2-5.2-4-7.3-5.4L103.3,645.1z"/>
	<path class="st1" d="M117.4,573.1c-1.6-0.1-3.7-0.1-5.8-0.1c-1.1,0-2.2,0-3.3,0.1l0.1,2c1,0,2.1-0.1,3.1-0.1c2.1,0,4.2,0.1,5.8,0.1
		L117.4,573.1z"/>
	<path class="st1" d="M88.5,634.7c1.9,1.7,4.2,3.4,7.3,5.4l1.1-1.7c-3.1-2-5.3-3.7-7.1-5.3L88.5,634.7z"/>
	<path class="st1" d="M13.9,310.7l-1.7-1c-1.7,2.8-3.1,5.6-4.2,8.1l1.8,0.8C10.8,316.1,12.2,313.4,13.9,310.7z"/>
	<path class="st1" d="M134.1,494.3l-1.3,1.5c2,1.7,3.8,3.8,5.4,6.3l0.2,0.3l1.7-1l-0.2-0.3C138.2,498.4,136.3,496.1,134.1,494.3z"/>
	<path class="st1" d="M79,606.5c0-1.8,0.1-3.6,0.3-5.3l-2-0.2c-0.2,1.8-0.3,3.7-0.3,5.6c0,1.2,0,2.4,0.1,3.6l2-0.2
		C79.1,608.9,79,607.7,79,606.5z"/>
	<path class="st1" d="M134.7,374.8c1.7,2.6,3.6,5,5.7,7.2l1.4-1.4c-2-2.1-3.9-4.4-5.4-6.9L134.7,374.8z"/>
	<path class="st1" d="M116.1,656.9c1.5,2.5,2.4,5.1,2.7,8l2-0.2c-0.3-3.2-1.3-6.1-2.9-8.9L116.1,656.9z"/>
	<path class="st1" d="M146.2,518.6c-0.7-3.3-1.5-6.2-2.3-8.8l-1.9,0.6c0.8,2.5,1.6,5.3,2.3,8.6L146.2,518.6z"/>
	<path class="st1" d="M116.8,490.6c3.2-0.1,6,0.3,8.6,1.1l0.6-1.9c-2.8-0.9-5.8-1.2-9.2-1.1L116.8,490.6z"/>
	<path class="st1" d="M127.2,573.4l-0.8,0l0,2l0.8,0c3.3,0,6-0.2,8.3-0.6l-0.3-2C133,573.2,130.4,573.4,127.2,573.4z"/>
	<path class="st1" d="M128.4,348.8c-0.2-2-0.2-4-0.2-6c0-1,0-1.9,0.1-2.9l-2-0.1c0,1-0.1,2-0.1,3c0,2.1,0.1,4.1,0.3,6.2L128.4,348.8
		z"/>
	<path class="st1" d="M80.7,618.6l-1.9,0.6c0.9,3.1,2.1,6,3.6,8.5l1.7-1C82.7,624.3,81.6,621.6,80.7,618.6z"/>
	<path class="st1" d="M6.7,333.3c0-2,0.2-4.1,0.5-6.4l-2-0.3c-0.4,2.4-0.5,4.6-0.5,6.7c0,0.8,0,1.7,0.1,2.5l2-0.1
		C6.7,334.9,6.7,334.1,6.7,333.3z"/>
	<path class="st1" d="M10.9,489c1.9,2,4.5,3.7,7.8,5.1l0.8-1.8c-3-1.3-5.4-2.9-7.1-4.7L10.9,489z"/>
	<path class="st1" d="M20.7,456.7c-2.6,2.4-4.7,4.5-6.3,6.6l1.6,1.2c1.6-2,3.6-4.1,6.1-6.4L20.7,456.7z"/>
	<path class="st1" d="M78.7,401.3c0.4-1.8,0.6-3.6,0.6-5.3c0-1.3-0.1-2.6-0.3-3.9l-2,0.3c0.2,1.2,0.3,2.4,0.3,3.6
		c0,1.6-0.2,3.3-0.5,4.9L78.7,401.3z"/>
	<path class="st1" d="M72.4,496.4c-3,0.3-6,0.5-8.9,0.6l0.1,2c3-0.1,6-0.4,9-0.6L72.4,496.4z"/>
	<path class="st1" d="M27.9,494.9l-0.4,2c2.7,0.6,5.7,1.1,9,1.5l0.2-2C33.5,496,30.6,495.5,27.9,494.9z"/>
	<path class="st1" d="M54.5,499.3l0-2l-0.9,0c-2.8,0-5.5-0.1-8.1-0.2l-0.1,2c2.6,0.1,5.4,0.2,8.2,0.2L54.5,499.3z"/>
	<path class="st1" d="M505.3,144.5c0.7-2.1,1.1-4.3,1.1-6.4c0-1-0.1-2-0.2-2.9l-2,0.3c0.1,0.9,0.2,1.8,0.2,2.6c0,1.9-0.3,3.8-1,5.7
		L505.3,144.5z"/>
	<path class="st1" d="M645.5,268.6c-1.8-2-3.1-4.5-3.9-7.5l-1.9,0.5c0.9,3.3,2.3,6.1,4.4,8.3L645.5,268.6z"/>
	<path class="st1" d="M649.6,227.1c-1.3,2.4-2.7,5.2-4.1,8l1.8,0.9c1.4-2.8,2.8-5.6,4.1-8L649.6,227.1z"/>
	<path class="st1" d="M641.8,243.5c-1.2,3.3-2.1,6.2-2.5,8.8l2,0.3c0.4-2.5,1.2-5.3,2.4-8.5L641.8,243.5z"/>
	<path class="st1" d="M666.5,149.8l2-0.4c-0.6-3-1.3-6-2.2-8.9l-1.9,0.6C665.2,144,665.9,146.9,666.5,149.8z"/>
	<path class="st1" d="M655.5,219.9c1.2-2.7,2.4-5.4,3.4-8.4l-1.9-0.7c-1.1,2.9-2.2,5.6-3.4,8.3L655.5,219.9z"/>
	<path class="st1" d="M645.1,396.9l0.2,2c3.1-0.2,6.2-0.6,9-1.1l-0.3-2C651.2,396.3,648.2,396.6,645.1,396.9z"/>
	<path class="st1" d="M639.4,236.9c-0.1-2.9-0.8-6-2-9.1l-1.9,0.7c1.2,2.9,1.8,5.7,1.9,8.4L639.4,236.9z"/>
	<path class="st1" d="M635.9,245.3c-1.1,2.5-2.7,4.9-4.9,7.1l1.4,1.4c2.3-2.4,4.1-4.9,5.3-7.7L635.9,245.3z"/>
	<path class="st1" d="M614.8,199.7c1.4,1.6,2.8,3.3,4.2,4.9l1.7,2l1.5-1.3l-1.7-2c-1.4-1.6-2.8-3.2-4.1-4.9L614.8,199.7z"/>
	<path class="st1" d="M624.1,257.7c-2.4,1.4-5.1,2.7-7.9,3.8l0.7,1.9c3-1.1,5.8-2.5,8.3-4L624.1,257.7z"/>
	<path class="st1" d="M633.2,219.7c-1.5-2.4-3.2-4.8-5.2-7.4l-1.6,1.2c2,2.6,3.7,5,5.1,7.3L633.2,219.7z"/>
	<path class="st1" d="M618.3,396.7c-3-0.1-6-0.3-9-0.5l-0.1,2c3,0.2,6,0.3,9,0.5L618.3,396.7z"/>
	<path class="st1" d="M636.2,399.2l0-2c-2.8,0-5.6,0-8.6-0.2l-0.3,0l-0.1,2l0.4,0c2.5,0.1,5,0.2,7.4,0.2
		C635.3,399.3,635.8,399.3,636.2,399.2z"/>
	<path class="st1" d="M692.4,364.4c-1,2.7-2.1,5.5-3.3,8.3l1.8,0.8c1.3-2.8,2.4-5.7,3.4-8.4L692.4,364.4z"/>
	<path class="st1" d="M753.1,285.3c1.6,2.4,3.1,5,4.3,7.7l1.8-0.8c-1.3-2.8-2.8-5.5-4.5-8L753.1,285.3z"/>
	<path class="st1" d="M756.3,326.1l1.6,1.2c1.8-2.3,3.2-5,4.3-8.2l-1.9-0.7C759.3,321.5,757.9,324,756.3,326.1z"/>
	<path class="st1" d="M732.7,335c-0.9,0.1-1.8,0.1-2.7,0.1c-2.1,0.1-4.2,0.2-6.3,0.4l0.2,2c2.1-0.2,4.2-0.3,6.2-0.4
		c0.9,0,1.8-0.1,2.7-0.1L732.7,335z"/>
	<path class="st1" d="M732.4,270.6l0.3-2c-2.7-0.4-5.7-0.6-9.1-0.5l0,2C726.9,270,729.8,270.2,732.4,270.6z"/>
	<path class="st1" d="M760.3,301.3c0.8,3,1.2,5.9,1.2,8.7l2,0c-0.1-2.9-0.5-6-1.3-9.1L760.3,301.3z"/>
	<path class="st1" d="M747.5,278.5l1.4-1.4c-2.4-2.4-4.8-4.3-7.4-5.6l-1,1.8C742.9,274.5,745.3,276.3,747.5,278.5z"/>
	<path class="st1" d="M749.8,331.5c-2.3,1.2-5,2-8.3,2.6l0.3,2c3.4-0.6,6.3-1.5,8.8-2.8L749.8,331.5z"/>
	<path class="st1" d="M666,178.9c-0.5,1.9-0.9,3.7-1.4,5.6l-0.2,0.6l1.9,0.5l0.2-0.6c0.5-1.8,0.9-3.7,1.4-5.5
		c0.2-0.8,0.4-1.7,0.6-2.6l-2-0.4C666.4,177.2,666.2,178,666,178.9z"/>
	<path class="st1" d="M715.1,338.9l-0.5-1.9c-2.5,0.7-4.6,1.6-6.5,2.8c-0.6,0.4-1.3,0.8-1.8,1.2l1.2,1.6c0.5-0.4,1.1-0.8,1.7-1.1
		C710.9,340.4,712.8,339.6,715.1,338.9z"/>
	<path class="st1" d="M714.7,270.7l-0.2-2c-2.7,0.3-5.6,0.7-9,1.2l0.3,2C709.2,271.3,712.1,270.9,714.7,270.7z"/>
	<path class="st1" d="M667.7,163.6c0,1.3,0,2.6-0.1,3.9l2,0.1c0.1-1.3,0.1-2.7,0.1-4c0-1.7-0.1-3.4-0.2-5.1l-2,0.1
		C667.7,160.3,667.7,162,667.7,163.6z"/>
	<path class="st1" d="M678.5,386.3l1.2,1.6c2.5-1.8,4.6-3.9,6.6-6.5l-1.6-1.2C682.9,382.7,680.9,384.7,678.5,386.3z"/>
	<path class="st1" d="M679.1,276l-0.2-2c-3.3,0.4-6.2,0.7-8.9,0.8l0.1,2C672.8,276.7,675.8,276.4,679.1,276z"/>
	<path class="st1" d="M695.7,355.9l1.8,0.8c1.3-3.2,2.6-5.7,4.1-7.8l-1.7-1.1C698.4,350,697,352.6,695.7,355.9z"/>
	<path class="st1" d="M275.3,166.4c-2.9-0.5-5.9-1-8.9-1.4l-0.3,2c3,0.5,5.9,0.9,8.9,1.4L275.3,166.4z"/>
	<path class="st1" d="M695.5,273.5l1.5-0.3l-0.3-2l-1.5,0.3c-2.5,0.4-4.9,0.8-7.4,1.2l0.3,2C690.5,274.3,693,273.9,695.5,273.5z"/>
	<path class="st1" d="M447.3,193.9l1.6-1.2c-1.8-2.3-4-4.6-6.4-6.6l-1.3,1.5C443.6,189.6,445.6,191.7,447.3,193.9z"/>
	<path class="st1" d="M430.9,121.9l0.8,1.8c1.7-0.8,3.4-1.6,5.2-2.4l3-1.4l-0.9-1.8l-3,1.4C434.3,120.3,432.6,121.1,430.9,121.9z"/>
	<path class="st1" d="M447.8,244.2l1.8,0.8c1.2-2.7,2.3-5.6,3.3-8.5l-1.9-0.6C450.1,238.8,449,241.6,447.8,244.2z"/>
	<path class="st1" d="M293.1,169.2c-2.5-0.4-5.3-0.8-8.9-1.4l-0.3,2c3.6,0.6,6.4,1,8.9,1.4L293.1,169.2z"/>
	<path class="st1" d="M301.8,172.3c1.7,0.1,3.3,0.3,4.8,0.3c1.4,0.1,2.9,0.1,4.3,0.1l0-2c-1.4,0-2.8-0.1-4.2-0.1
		c-1.5-0.1-3.1-0.2-4.7-0.3L301.8,172.3z"/>
	<path class="st1" d="M464.8,110.2c3.1-0.7,6-1.1,8.7-1.2l0-2c-2.8,0.1-5.8,0.5-9.1,1.2L464.8,110.2z"/>
	<path class="st1" d="M538.9,248.1l0.6-1.9c-2.3-0.8-4.7-1.5-7.2-2.3l-1.4-0.5l-0.6,1.9l1.4,0.5
		C534.2,246.5,536.6,247.3,538.9,248.1z"/>
	<path class="st1" d="M590.1,264.3c-2.8-0.4-5.6-1.1-8.6-1.9l-0.6,1.9c3.1,0.9,6,1.6,8.9,2L590.1,264.3z"/>
	<path class="st1" d="M530.2,382.2c-2.8-1.1-5.6-2.3-8.2-3.6l-0.9,1.8c2.7,1.3,5.4,2.5,8.3,3.6L530.2,382.2z"/>
	<path class="st1" d="M597.3,149.5c-0.2,1.8-0.3,3.8-0.3,5.7c0,1.1,0,2.3,0.1,3.4l2-0.1c-0.1-1.1-0.1-2.2-0.1-3.3
		c0-1.9,0.1-3.7,0.3-5.5L597.3,149.5z"/>
	<path class="st1" d="M513.9,237.8l-0.7,1.9c2.6,0.9,5.4,1.9,8.6,2.9l0.6-1.9C519.2,239.6,516.5,238.7,513.9,237.8z"/>
	<path class="st1" d="M608.1,265.9l-0.4-2c-2.8,0.6-5.8,0.9-8.7,1l0,2C602,266.9,605.1,266.6,608.1,265.9z"/>
	<path class="st1" d="M602.6,175.9c-0.2-0.6-0.4-1.3-0.6-2c-0.7-2.2-1.2-4.4-1.7-6.6l-2,0.4c0.5,2.2,1,4.5,1.7,6.8
		c0.2,0.7,0.4,1.4,0.7,2L602.6,175.9z"/>
	<path class="st1" d="M605.1,133.4l-1.7-1.1c-1.7,2.6-3.1,5.3-4.1,8.3l1.9,0.7C602.2,138.4,603.5,135.8,605.1,133.4z"/>
	<path class="st1" d="M500.7,152.6l-1.6-1.2c-1.6,2-3.5,4.1-6,6.5l1.4,1.4C497.1,156.8,499.1,154.6,500.7,152.6z"/>
	<path class="st1" d="M149.1,536.5c-0.4-2.7-0.8-5.8-1.3-8.9l-2,0.3c0.5,3.1,0.9,6.2,1.3,8.9L149.1,536.5z"/>
	<path class="st1" d="M609.2,192.6l1.6-1.2c-1.9-2.6-3.4-5-4.7-7.5l-1.8,1C605.7,187.4,607.3,189.9,609.2,192.6z"/>
	<path class="st1" d="M448,116.1c3.1-1.4,5.8-2.5,8.3-3.4l-0.7-1.9c-2.5,0.9-5.3,2.1-8.4,3.4L448,116.1z"/>
	<path class="st1" d="M467,193.2l-2-0.4c-0.3,1.4-0.4,2.8-0.5,4.2c0,0.3,0,0.7,0,1c0,1.4,0.1,2.7,0.3,4l2-0.3
		c-0.2-1.2-0.3-2.5-0.3-3.7c0-0.3,0-0.6,0-0.9C466.6,195.8,466.8,194.5,467,193.2z"/>
	<path class="st1" d="M456.1,209.5c-0.5-3.1-1.3-6.1-2.5-8.9l-1.8,0.8c1.1,2.6,1.9,5.4,2.4,8.4L456.1,209.5z"/>
	<path class="st1" d="M496.4,233c2.6,1.2,5.4,2.4,8.3,3.5l0.7-1.9c-2.9-1.2-5.7-2.3-8.3-3.5L496.4,233z"/>
	<path class="st1" d="M495.9,120.4c2.2,2.4,3.9,4.8,5.3,7l1.7-1c-1.4-2.4-3.2-4.8-5.5-7.4L495.9,120.4z"/>
	<path class="st1" d="M182.2,395.1l0.1,2c2.9-0.1,6-0.4,9.1-0.8l-0.3-2C188.1,394.7,185.1,395,182.2,395.1z"/>
	<path class="st1" d="M414.4,128.8l0.6,1.9c2.6-0.9,5.4-1.9,8.5-3.3l-0.8-1.8C419.7,126.9,416.9,128,414.4,128.8z"/>
	<path class="st1" d="M411.8,335.9l0.7,1.9c3.3-1.1,6-2,8.5-2.8l-0.6-1.9C417.9,333.9,415.1,334.8,411.8,335.9z"/>
	<path class="st1" d="M400.7,340.3c-1.8,0.8-3.7,1.6-5.6,2.3l0.7,1.9c1.9-0.8,3.8-1.6,5.7-2.3c0.9-0.4,1.8-0.8,2.7-1.1l-0.8-1.8
		C402.5,339.5,401.6,339.9,400.7,340.3z"/>
	<path class="st1" d="M418.3,173.6c-2.7-0.9-5.7-1.7-8.7-2.5l-0.5,1.9c3,0.7,5.9,1.6,8.6,2.4L418.3,173.6z"/>
	<path class="st1" d="M420.5,279.1l-0.9-1.8c-2.4,1.3-5.1,2.4-8.1,3.4l0.6,1.9C415.3,281.6,418,280.4,420.5,279.1z"/>
	<path class="st1" d="M453.4,227.3l2,0.4c0.7-3.1,1.1-6.2,1.2-9.1l-2-0.1C454.4,221.4,454,224.3,453.4,227.3z"/>
	<path class="st1" d="M439.1,259.7l1.6,1.2c1.7-2.4,3.4-5,4.9-7.7l-1.7-1C442.4,254.8,440.8,257.3,439.1,259.7z"/>
	<path class="st1" d="M364.7,167.2c-2.7,0.1-5.7,0.4-9,0.6l0.2,2c3.3-0.3,6.2-0.5,8.9-0.6L364.7,167.2z"/>
	<path class="st1" d="M447.2,331.7c3,0.3,5.8,1,8.5,2l0.7-1.9c-2.8-1-5.9-1.7-9-2.1L447.2,331.7z"/>
	<path class="st1" d="M429.2,330.9l0.4,2c3.1-0.7,6-1.1,8.8-1.3l-0.2-2C435.4,329.8,432.4,330.2,429.2,330.9z"/>
	<path class="st1" d="M435,180.9c-2.5-1.5-5.2-2.8-8.2-4.1l-0.8,1.8c2.8,1.2,5.5,2.6,7.9,4L435,180.9z"/>
	<path class="st1" d="M382.8,167.1c-2.9-0.1-6-0.2-9.1-0.2l0,2c3,0,6.1,0,8.9,0.2L382.8,167.1z"/>
	<path class="st1" d="M361.8,301l1.5,1.3c1.9-2.2,4.1-4.2,6.5-5.8l-1.2-1.6C366.1,296.6,363.8,298.7,361.8,301z"/>
	<path class="st1" d="M403.4,285.2l-0.5-1.9c-2.2,0.5-4.4,1.1-6.6,1.6l-2.1,0.5l0.5,1.9l2.1-0.5C399,286.3,401.2,285.8,403.4,285.2z
		"/>
	<path class="st1" d="M361,343c2.3,2.3,5,4,7.9,5l0.7-1.9c-2.6-0.9-5-2.4-7.2-4.5L361,343z"/>
	<path class="st1" d="M400.4,171.2l0.4-2l-0.5-0.1c-2.8-0.5-5.6-0.9-8.4-1.3l-0.2,2c2.8,0.3,5.6,0.7,8.3,1.3L400.4,171.2z"/>
	<path class="st1" d="M385.4,287.5c-3.3,0.9-6.1,1.9-8.6,3l0.8,1.8c2.5-1,5.2-2,8.4-2.9L385.4,287.5z"/>
	<path class="st1" d="M379,130.9c3.2,0.7,6.2,1.2,8.9,1.7l0.3-2c-2.7-0.4-5.7-1-8.8-1.7L379,130.9z"/>
	<path class="st1" d="M378.1,347.2l0.1,2c2.8-0.2,5.7-0.7,9-1.7l-0.6-1.9C383.5,346.5,380.7,347,378.1,347.2z"/>
	<path class="st1" d="M434.9,267.9l-1.5-1.4c-2.1,2.2-4.3,4.2-6.5,6l1.2,1.6C430.5,272.2,432.8,270.1,434.9,267.9z"/>
	<path class="st1" d="M564.8,256.1l-0.8,1.8c3.3,1.4,5.9,2.5,8.4,3.4l0.7-1.9C570.6,258.6,568,257.5,564.8,256.1z"/>
	<path class="st1" d="M143.1,569.8l1.2,1.6c2.5-1.9,4.3-4.4,5.4-7.8l-1.9-0.6C146.7,566,145.2,568.2,143.1,569.8z"/>
	<path class="st1" d="M556.5,252.4l-1.6-0.7c-1.9-0.8-4.1-1.7-6.8-2.7l-0.7,1.9c2.6,0.9,4.8,1.8,6.7,2.6l1.6,0.7L556.5,252.4z"/>
	<path class="st1" d="M573.2,394.9c2.9,0.4,5.9,0.8,9,1.1l0.2-2c-3.1-0.3-6-0.7-8.9-1.1L573.2,394.9z"/>
	<path class="st1" d="M564.7,391.5c-3-0.5-6-1.1-8.8-1.7l-0.4,2c2.9,0.6,5.8,1.2,8.9,1.7L564.7,391.5z"/>
	<path class="st1" d="M463.7,337.4c2.5,1.4,4.9,3,7.4,4.8l1.2-1.6c-2.6-1.9-5.1-3.5-7.6-5L463.7,337.4z"/>
	<path class="st1" d="M591.2,396.9c2.9,0.3,5.9,0.5,9,0.7l0.1-2c-3.1-0.2-6.1-0.5-9-0.7L591.2,396.9z"/>
	<path class="st1" d="M662.3,193.7c-0.8,3.2-1.6,6.1-2.4,8.6l1.9,0.6c0.8-2.6,1.6-5.4,2.4-8.7L662.3,193.7z"/>
	<path class="st1" d="M651.9,275c2.6,0.9,5.6,1.5,9.1,1.8l0.2-2c-3.3-0.3-6.1-0.8-8.5-1.7L651.9,275z"/>
	<path class="st1" d="M670.9,390.7c-2.6,1.2-5.4,2.2-8.3,3.1l0.6,1.9c3-0.9,5.9-2,8.6-3.2L670.9,390.7z"/>
	<path class="st1" d="M481.3,171.5c2.1-2,4.2-3.9,6.3-5.8l0.3-0.2l-1.3-1.5l-0.3,0.2c-2.1,1.9-4.3,3.9-6.4,5.9L481.3,171.5z"/>
	<path class="st1" d="M468.3,184.2l1.8,1c1.3-2.4,3-4.7,5.1-7.2l-1.5-1.3C471.4,179.3,469.7,181.7,468.3,184.2z"/>
	<path class="st1" d="M486.2,352.2c-1.8-1.7-4.3-3.9-6.8-6l-1.3,1.5c2.5,2.1,4.9,4.3,6.7,5.9L486.2,352.2z"/>
	<path class="st1" d="M467.9,210.9c1.4,2.5,3.3,5,5.6,7.3l1.4-1.4c-2.2-2.2-4-4.5-5.3-6.9L467.9,210.9z"/>
	<path class="st1" d="M480.5,224.1c2.3,1.6,4.9,3.3,7.7,4.8l1-1.8c-2.8-1.5-5.3-3.1-7.5-4.7L480.5,224.1z"/>
	<path class="st1" d="M506.6,369.7l-1.2,1.6c1.1,0.8,2.1,1.5,3.2,2.2c1.5,0.9,3,1.9,4.5,2.7l1-1.7c-1.5-0.9-3-1.8-4.4-2.7
		C508.7,371.1,507.7,370.4,506.6,369.7z"/>
	<path class="st1" d="M491.5,359.8c2.7,2.4,4.8,4.3,6.8,6l1.3-1.5c-2-1.7-4.1-3.5-6.7-5.9L491.5,359.8z"/>
	<path class="st1" d="M547.2,387.7c-2.9-0.8-5.8-1.6-8.6-2.5l-0.6,1.9c2.8,0.9,5.7,1.8,8.7,2.6L547.2,387.7z"/>
	<path class="st1" d="M482.1,110.2c2.7,0.9,5.2,2.3,7.5,4.1l1.3-1.6c-2.5-2-5.2-3.5-8.2-4.5L482.1,110.2z"/>
	<path class="st1" d="M398.4,131.8c-0.4,0-0.9,0-1.3-0.1l-0.1,2c0.5,0,1,0.1,1.4,0.1c0.2,0,0.4,0,0.7,0c2.2,0,4.6-0.2,7.1-0.7
		l-0.4-2C403.2,131.6,400.8,131.8,398.4,131.8z"/>
	<path class="st1" d="M279.9,256.5l-0.8,1.8c2.3,1,4.9,2.2,7.6,3.4l0.6,0.3l0.8-1.8l-0.6-0.3C284.7,258.7,282.1,257.5,279.9,256.5z"
		/>
	<path class="st1" d="M333.5,286.4c-1.3-1.6-3.1-3.4-5.4-5.1l-1.2,1.6c2.2,1.7,3.9,3.3,5.1,4.8c0.4,0.4,0.7,0.9,1,1.4l1.7-1.1
		C334.2,287.4,333.9,286.9,333.5,286.4z"/>
	<path class="st1" d="M147.4,387.9c2.5,1.7,5.2,3.1,8.1,4.4l0.8-1.8c-2.8-1.2-5.3-2.6-7.7-4.2L147.4,387.9z"/>
	<path class="st1" d="M148.4,545.6c0.4,3,0.6,5.7,0.6,8.2l0,0.6l2,0l0-0.7c0-2.5-0.2-5.4-0.6-8.4L148.4,545.6z"/>
	<path class="st1" d="M345.4,168.8c-2.5,0.2-5.1,0.5-7.6,0.7l0.2,2c2.6-0.2,5.1-0.5,7.6-0.7l1.3-0.1l-0.2-2L345.4,168.8z"/>
	<path class="st1" d="M332.9,305.1l1.8,0.9c1.6-3.1,2.4-6.2,2.5-9l-2,0C335.1,299.5,334.4,302.2,332.9,305.1z"/>
	<path class="st1" d="M322,318.9l1.4,1.4c2.4-2.3,4.5-4.5,6.2-6.7l-1.5-1.3C326.4,314.5,324.3,316.6,322,318.9z"/>
	<path class="st1" d="M308.3,330.3l1.2,1.6c2.6-1.9,5-3.8,7.1-5.6l-1.3-1.5C313.2,326.6,310.8,328.4,308.3,330.3z"/>
	<path class="st1" d="M233,379.5l1,1.8c2.6-1.4,5.3-2.9,7.8-4.5l-1-1.7C238.2,376.6,235.6,378.1,233,379.5z"/>
	<path class="st1" d="M254.1,248.2l0.6-1.9c-1.9-0.7-3.9-1.3-5.8-2l-2.7-0.9l-0.6,1.9l2.7,0.9C250.2,246.9,252.2,247.6,254.1,248.2z
		"/>
	<path class="st1" d="M311.7,273.5c2.9,1.5,5.5,3,7.8,4.4l1-1.7c-2.3-1.4-5-2.9-7.9-4.4L311.7,273.5z"/>
	<path class="st1" d="M262.6,251.3c3,1.1,5.7,2.2,8.3,3.3l0.8-1.8c-2.6-1.1-5.3-2.2-8.4-3.4L262.6,251.3z"/>
	<path class="st1" d="M216.8,387.1l0.7,1.9c2.7-1.1,5.5-2.3,8.3-3.6l-0.9-1.8C222.2,384.8,219.5,386,216.8,387.1z"/>
	<path class="st1" d="M248.2,370.1l1.1,1.7c2.5-1.7,5-3.5,7.3-5.3l-1.2-1.6C253.2,366.7,250.7,368.4,248.2,370.1z"/>
	<path class="st1" d="M278.3,350.1l1,1.7c2.5-1.5,5-3.1,7.7-4.8l-1.1-1.7C283.3,347,280.7,348.6,278.3,350.1z"/>
	<path class="st1" d="M262.9,359.6l1.1,1.7c2.5-1.6,5.4-3.4,7.6-4.8l-1-1.7C268.3,356.2,265.4,358,262.9,359.6z"/>
	<path class="st1" d="M295.5,265.7c3,1.4,5.7,2.6,8.1,3.8l0.9-1.8c-2.5-1.2-5.2-2.4-8.2-3.8L295.5,265.7z"/>
	<path class="st1" d="M353,326.6c0.4,3.1,1.2,6.1,2.6,8.9l1.8-0.9c-1.3-2.6-2.1-5.4-2.4-8.3L353,326.6z"/>
	<path class="st1" d="M293.5,340.5l1.1,1.7c2.7-1.7,5.2-3.4,7.5-5l-1.1-1.6C298.6,337.1,296.1,338.8,293.5,340.5z"/>
	<path class="st1" d="M199.8,392.6l0.5,1.9c2.9-0.7,5.8-1.5,8.7-2.5l-0.6-1.9C205.5,391.1,202.6,391.9,199.8,392.6z"/>
	<path class="st1" d="M353.4,317.3l2,0.4c0.6-2.8,1.6-5.5,3-8.2l-1.8-0.9C355.1,311.4,354,314.4,353.4,317.3z"/>
	<path class="st1" d="M164.6,393.3l-0.5,1.9c1.4,0.3,2.8,0.6,4.2,0.9c1.6,0.3,3.2,0.5,4.8,0.7l0.2-2c-1.6-0.2-3.1-0.4-4.6-0.6
		C167.4,393.9,166,393.6,164.6,393.3z"/>
	<path class="st1" d="M740.3,515c1.9,2.3,3.6,4.8,5.2,7.2l1.7-1.1c-1.6-2.5-3.4-5-5.3-7.4L740.3,515z"/>
	<path class="st1" d="M700.4,15.5c-3-0.6-6-1.1-9-1.4l-0.2,2c2.9,0.3,5.9,0.8,8.8,1.4L700.4,15.5z"/>
	<path class="st1" d="M800.3,238.5c-0.8-2.8-1.6-5.8-2.6-8.7l-1.9,0.6c0.9,2.9,1.8,5.8,2.6,8.6L800.3,238.5z"/>
	<path class="st1" d="M682.3,15.7l0-2c-3.2,0.1-6.3,0.4-9.1,0.9l0.4,2C676.2,16,679.2,15.8,682.3,15.7z"/>
	<path class="st1" d="M804,256.2c-0.4-2.9-1-5.9-1.6-8.9l-2,0.4c0.6,2.9,1.2,5.9,1.6,8.8L804,256.2z"/>
	<path class="st1" d="M682.5,540.9l1.1,1.6c2.4-1.7,5-3.2,7.6-4.4l-0.8-1.8C687.7,537.6,685,539.2,682.5,540.9z"/>
	<path class="st1" d="M776.7,189.9c-1.6-2.2-3.2-4.5-5.3-7.3l-1.6,1.2c2.1,2.8,3.7,5.1,5.3,7.3L776.7,189.9z"/>
	<path class="st1" d="M646,47.7l-1.7-1.1c-1.6,2.3-3.5,4.6-5.7,6.6l1.4,1.5C642.3,52.5,644.4,50.2,646,47.7z"/>
	<path class="st1" d="M726,609.6c-1.6-2.2-2.5-4.8-2.8-7.9l-2,0.2c0.4,3.5,1.4,6.4,3.2,8.9L726,609.6z"/>
	<path class="st1" d="M803.6,274.3l2,0c0-3-0.2-6-0.4-9.1l-2,0.2C803.4,268.4,803.5,271.4,803.6,274.3z"/>
	<path class="st1" d="M619.1,616.7c0.1-2.3,0.2-4.7,0.4-6.9l-2-0.1c-0.2,2.3-0.3,4.6-0.4,6.9c0,0.6-0.1,1.3-0.2,2l2,0.2
		C619,618.1,619.1,617.4,619.1,616.7z"/>
	<path class="st1" d="M761.4,554.4c-0.8-3-1.6-5.9-2.5-8.7l-1.9,0.6c0.9,2.7,1.7,5.6,2.5,8.6L761.4,554.4z"/>
	<path class="st1" d="M621.3,592l-2-0.3c-0.4,2.9-0.8,6-1.1,9l2,0.2C620.5,597.9,620.9,594.9,621.3,592z"/>
	<path class="st1" d="M652,498.7c1-2.9,1.9-5.8,2.8-8.6l-1.9-0.6c-0.8,2.8-1.7,5.6-2.7,8.5L652,498.7z"/>
	<path class="st1" d="M658.8,445.2c-1-2.8-2.4-5.5-4.4-8.2l-1.6,1.2c1.8,2.5,3.2,5.1,4.1,7.6L658.8,445.2z"/>
	<path class="st1" d="M652.6,34.6c0.4-1.1,0.9-2.2,1.3-3.3l-1.8-0.8c-0.5,1.1-0.9,2.2-1.3,3.3c-0.6,1.6-1.3,3.3-2.1,5l1.8,0.8
		C651.2,37.9,651.9,36.2,652.6,34.6z"/>
	<path class="st1" d="M736,506.9c-2-2.2-4.2-4.3-6.4-6.4l-1.4,1.5c2.2,2.1,4.3,4.2,6.3,6.3L736,506.9z"/>
	<path class="st1" d="M740.3,619.8l0.4-2l-0.5-0.1c-3-0.7-5.6-1.6-7.7-2.7l-0.9,1.8c2.3,1.2,5.1,2.2,8.3,2.9L740.3,619.8z"/>
	<path class="st1" d="M665.1,19l-0.8-1.8c-3.1,1.4-5.6,3.1-7.6,5.4l1.5,1.3C660,21.9,662.3,20.3,665.1,19z"/>
	<path class="st1" d="M725.9,575.1l1.9,0.5c0.6-2.5,1.4-5.7,2-8.9l-2-0.3C727.3,569.5,726.5,572.7,725.9,575.1z"/>
	<path class="st1" d="M648.2,430.3c-2.3-2-4.7-3.9-7.4-5.5l-1,1.7c2.5,1.6,4.9,3.3,7.1,5.3L648.2,430.3z"/>
	<path class="st1" d="M727.2,549.1c0.8,2.6,1.2,5.5,1.3,8.6l2-0.1c-0.1-3.3-0.6-6.4-1.4-9.1L727.2,549.1z"/>
	<path class="st1" d="M739.6,90.5c0.5-0.7,0.9-1.4,1.4-2.2l-1.7-1.1c-0.5,0.7-0.9,1.5-1.4,2.2c-1.2,1.9-2.4,3.7-3.4,5.5l1.7,1
		C737.2,94.1,738.4,92.4,739.6,90.5z"/>
	<path class="st1" d="M755,364.5l1.1,1.6c2.7-1.9,5.1-3.6,7.3-5.3l-1.2-1.6C760.1,360.9,757.7,362.6,755,364.5z"/>
	<path class="st1" d="M744.7,45.2c-1.5-2.5-3.4-5-5.5-7.4l-1.5,1.3c2,2.3,3.8,4.7,5.3,7.1L744.7,45.2z"/>
	<path class="st1" d="M632.6,420.7c-3-1.2-6-2-8.9-2.4l-0.3,2c2.7,0.4,5.6,1.1,8.5,2.3L632.6,420.7z"/>
	<path class="st1" d="M733.5,380.9l-1.1-1.7c-2.8,1.9-5.3,3.5-7.5,5.1l1.2,1.6C728.3,384.4,730.7,382.7,733.5,380.9z"/>
	<path class="st1" d="M761.9,566.3c0.4,2,0.7,4.1,1,6.1l2-0.3c-0.3-2.1-0.6-4.2-1-6.2c-0.2-0.9-0.3-1.8-0.5-2.7l-2,0.4
		C761.6,564.5,761.8,565.4,761.9,566.3z"/>
	<path class="st1" d="M750.2,62.7c-0.1-3-0.6-6.1-1.6-9.1l-1.9,0.6c0.9,2.8,1.4,5.7,1.5,8.5L750.2,62.7z"/>
	<path class="st1" d="M721.7,592.7l2,0.3c0.4-2.4,1-5.1,1.9-8.7l-1.9-0.5C722.6,587.5,722.1,590.2,721.7,592.7z"/>
	<path class="st1" d="M702.4,411.8c1.2-2.6,2.6-5.1,4.4-7.6l-1.6-1.2c-1.8,2.6-3.4,5.2-4.6,7.9L702.4,411.8z"/>
	<path class="st1" d="M786.5,205.1c-1.5-2.5-3-5-4.8-7.7l-1.7,1.1c1.7,2.6,3.3,5.1,4.7,7.6L786.5,205.1z"/>
	<path class="st1" d="M750,529.9c1.4,2.6,2.7,5.3,3.8,8l1.8-0.8c-1.2-2.8-2.5-5.6-3.9-8.2L750,529.9z"/>
	<path class="st1" d="M791,325.7l1.8,1c1.5-2.7,2.8-5.4,4-8.1l-1.8-0.8C793.8,320.3,792.5,323,791,325.7z"/>
	<path class="st1" d="M758.1,616.2l-1.4-1.4c-2,1.9-4.5,3.1-7.4,3.6l0.3,2C752.9,619.8,755.8,618.4,758.1,616.2z"/>
	<path class="st1" d="M781.3,340.6l1.6,1.2c1.9-2.4,3.6-4.9,5.2-7.4l-1.7-1.1C784.8,335.8,783.1,338.2,781.3,340.6z"/>
	<path class="st1" d="M765.4,599.3l-2-0.3c-0.5,3.2-1.2,6.1-2.1,8.5l1.9,0.7C764.1,605.7,764.9,602.7,765.4,599.3z"/>
	<path class="st1" d="M754.3,161.5l1.7-1c-1.5-2.4-3-5-4.5-7.7l-1.7,1C751.3,156.5,752.8,159.1,754.3,161.5z"/>
	<path class="st1" d="M766,175.4c-1.7-2.3-3.5-4.8-5.1-7.3l-1.7,1.1c1.7,2.6,3.5,5.1,5.2,7.4L766,175.4z"/>
	<path class="st1" d="M766.1,588.8c0-2.4-0.1-5-0.3-7.7l-2,0.1c0.2,2.6,0.3,5.2,0.3,7.5c0,0.5,0,0.9,0,1.4l2,0
		C766,589.8,766.1,589.3,766.1,588.8z"/>
	<path class="st1" d="M794.6,221.3c-1.1-2.7-2.4-5.5-3.7-8.3l-1.8,0.9c1.3,2.7,2.6,5.4,3.7,8.1L794.6,221.3z"/>
	<path class="st1" d="M737.3,129.7l1.8-0.9c-0.9-1.8-1.7-3.6-2.6-5.3c-0.4-0.9-0.9-1.8-1.2-2.7l-1.8,0.8c0.4,0.9,0.8,1.9,1.3,2.8
		C735.6,126.2,736.4,127.9,737.3,129.7z"/>
	<path class="st1" d="M703.2,455l-1.9,0.5c0.9,3.2,1.7,6.1,2.6,8.7l1.9-0.6C704.9,461,704.1,458.2,703.2,455z"/>
	<path class="st1" d="M712.7,480c-1.4-2.5-2.7-5.1-3.9-8l-1.8,0.8c1.2,2.9,2.5,5.6,4,8.2L712.7,480z"/>
	<path class="st1" d="M747,71.3c-0.8,2.8-1.9,5.5-3.2,8.2l1.8,0.9c1.4-2.8,2.5-5.6,3.4-8.5L747,71.3z"/>
	<path class="st1" d="M708.2,534.5l0.1-2c-2.9-0.1-6,0.2-9.2,0.9l0.4,2C702.6,534.7,705.5,534.4,708.2,534.5z"/>
	<path class="st1" d="M717.6,21.3c-2.6-1.3-5.5-2.4-8.5-3.4l-0.6,1.9c2.9,1,5.7,2.1,8.2,3.3L717.6,21.3z"/>
	<path class="st1" d="M741.3,137.8c1.5,2.9,2.8,5.5,4.1,8l1.8-0.9c-1.3-2.5-2.7-5.1-4.1-8L741.3,137.8z"/>
	<path class="st1" d="M802.4,292.1l2,0.3c0.4-3,0.8-6,1-9l-2-0.1C803.1,286.2,802.8,289.2,802.4,292.1z"/>
	<path class="st1" d="M732.7,31.5c-2.2-1.9-4.7-3.8-7.2-5.5l-1.1,1.7c2.5,1.7,4.9,3.5,7.1,5.4L732.7,31.5z"/>
	<path class="st1" d="M716.6,536.3c2.7,1.2,4.9,2.9,6.7,5.1l1.6-1.3c-2-2.5-4.5-4.4-7.5-5.7L716.6,536.3z"/>
	<path class="st1" d="M798.2,309.4l1.9,0.6c1-2.9,1.8-5.8,2.5-8.7l-1.9-0.5C800,303.7,799.1,306.6,798.2,309.4z"/>
	<path class="st1" d="M769.2,353.6l1.3,1.5c2.4-2.1,4.6-4.2,6.5-6.3l-1.5-1.4C773.7,349.5,771.5,351.6,769.2,353.6z"/>
	<path class="st1" d="M730.4,108.6c0,1.4,0.1,2.8,0.3,4.2l2-0.3c-0.2-1.3-0.3-2.6-0.3-3.9c0-1.6,0.2-3.1,0.5-4.7l-1.9-0.4
		C730.6,105.1,730.4,106.8,730.4,108.6z"/>
	<path class="st1" d="M715.8,488.6c1.8,2.4,3.7,4.8,5.8,7l1.5-1.4c-2-2.2-3.9-4.5-5.7-6.8L715.8,488.6z"/>
	<path class="st1" d="M711.1,396l1.4,1.4c1.9-2,4.1-4,6.5-6l-1.3-1.5C715.2,391.9,713.1,393.9,711.1,396z"/>
	<path class="st1" d="M699.1,446.8l1.9-0.5l-0.6-2.3c-0.5-2.2-0.9-4.3-1.2-6.4l-2,0.3c0.3,2.1,0.7,4.3,1.3,6.6L699.1,446.8z"/>
	<path class="st1" d="M741,376l1.4-0.9c2-1.3,4.1-2.6,6.1-3.9l-1.1-1.7c-2,1.3-4.1,2.6-6.1,3.9l-1.4,0.9L741,376z"/>
	<path class="st1" d="M697.7,419.7c-0.6,2.9-1,6-1,9.1l2,0c0.1-3,0.4-5.9,1-8.7L697.7,419.7z"/>
	<path class="st1" d="M572.8,434.9l-0.4,0.2l0.9,1.8l0.4-0.2c2.3-1.1,4.9-2.4,7.6-3.8l-0.9-1.8C577.7,432.5,575.1,433.8,572.8,434.9
		z"/>
	<path class="st1" d="M528.9,467.2l1.4,1.5c2.2-2.1,4.5-4.2,6.6-6.1l-1.3-1.5C533.4,463,531.1,465.1,528.9,467.2z"/>
	<path class="st1" d="M169.5,167.4l1.9,0.7c1.1-2.8,2.1-5.5,3.1-8.5l-1.9-0.6C171.6,162,170.5,164.7,169.5,167.4z"/>
	<path class="st1" d="M153.8,102.7c-2.1-2-4.4-4.1-6.8-6l-1.3,1.5c2.3,1.9,4.6,3.9,6.7,5.9L153.8,102.7z"/>
	<path class="st1" d="M166.3,185.1c0.3-2.8,1-5.5,2-8.6l-1.9-0.6c-1,3.2-1.7,6-2,8.9L166.3,185.1z"/>
	<path class="st1" d="M394.9,83c-2.1,2.2-4.2,4.4-6.2,6.6l1.5,1.3c2-2.2,4-4.4,6.1-6.5L394.9,83z"/>
	<path class="st1" d="M249.5,240.3l-1-1.7c-2.7,1.6-5.3,3-7.8,4.3l0.9,1.8C244.1,243.4,246.8,241.9,249.5,240.3z"/>
	
		<rect x="490.9" y="502.8" transform="matrix(0.6721 -0.7405 0.7405 0.6721 -210.5732 532.0402)" class="st1" width="9" height="2"/>
	<path class="st1" d="M503.7,493.1l1.5,1.4c2-2.2,4-4.4,6.1-6.6l-1.5-1.4C507.8,488.7,505.8,490.9,503.7,493.1z"/>
	<path class="st1" d="M516.1,479.9l1.4,1.4c2.2-2.2,4.3-4.4,6.3-6.4l-1.4-1.4C520.4,475.5,518.2,477.7,516.1,479.9z"/>
	<polygon class="st1" points="485.5,513.1 484.4,514.4 485.8,515.8 487,514.5 486.3,513.8 	"/>
	<path class="st1" d="M174.3,132.5c-0.9-2.8-2.2-5.6-3.7-8.4l-1.8,0.9c1.4,2.7,2.6,5.4,3.5,8.1L174.3,132.5z"/>
	<path class="st1" d="M467.5,30.1c-2.8,0.8-5.7,1.9-8.5,3.3l0.8,1.8c2.8-1.3,5.6-2.4,8.3-3.1L467.5,30.1z"/>
	<path class="st1" d="M481.7,30.2c1.3,0,2.5,0.1,3.7,0.3l0.3-2c-1.3-0.2-2.7-0.3-4-0.3l-0.7,0c0,0,0,0,0,0c-1.5,0-3,0.1-4.5,0.2
		l0.2,2c1.4-0.1,2.9-0.2,4.4-0.2L481.7,30.2z"/>
	<path class="st1" d="M233.2,248.2l-0.7-1.9c-2.9,1-5.8,1.8-8.5,2.4l0.4,2C227.2,250.1,230.1,249.3,233.2,248.2z"/>
	<path class="st1" d="M185.5,232.9c-2-2.3-3.9-4.6-5.6-6.9l-1.6,1.2c1.7,2.3,3.7,4.7,5.7,7L185.5,232.9z"/>
	<path class="st1" d="M206.1,250c2.9,0.8,6,1.3,9.1,1.4l0.1-2c-3-0.1-5.9-0.5-8.6-1.3L206.1,250z"/>
	<path class="st1" d="M190.3,240.8c2.3,2.2,4.8,4,7.3,5.5l1-1.7c-2.4-1.4-4.8-3.2-7-5.3L190.3,240.8z"/>
	<path class="st1" d="M263.4,228.7c-2.6,1.9-5.1,3.6-7.4,5.1l1.1,1.7c2.3-1.6,4.7-3.2,7.4-5.2L263.4,228.7z"/>
	<path class="st1" d="M279,219.5l-1.2-1.6l-0.4,0.3c-1.1,0.8-2.2,1.7-3.4,2.5c-1.1,0.9-2.3,1.7-3.5,2.6l1.2,1.6
		c1.2-0.9,2.3-1.8,3.5-2.6c1.1-0.9,2.3-1.7,3.4-2.5L279,219.5z"/>
	<path class="st1" d="M165.7,203l1.9-0.5c-0.6-2.4-1.1-4.7-1.3-7c-0.1-0.5-0.1-1.1-0.1-1.6l-2,0.1c0,0.5,0.1,1.1,0.2,1.7
		C164.5,198.1,165,200.6,165.7,203z"/>
	<path class="st1" d="M165.8,116.4c-1.7-2.4-3.6-4.8-5.7-7.1l-1.5,1.3c2,2.3,3.9,4.6,5.5,7L165.8,116.4z"/>
	<path class="st1" d="M174.4,141.7c0.2,1.6,0.3,3.2,0.3,4.7c0,1.3-0.1,2.7-0.2,4l2,0.2c0.2-1.4,0.2-2.8,0.2-4.2c0-1.6-0.1-3.3-0.3-5
		L174.4,141.7z"/>
	<path class="st1" d="M168.8,211.6c1.2,2.6,2.6,5.3,4.3,8l1.7-1c-1.6-2.6-3-5.3-4.2-7.8L168.8,211.6z"/>
	<path class="st1" d="M284.9,212.4l1.2,1.6c2.4-1.9,4.7-3.8,7-5.6l-1.3-1.5C289.7,208.7,287.3,210.6,284.9,212.4z"/>
	<path class="st1" d="M366.7,118.3l1.7,1.1c1.6-2.5,3.3-5,5-7.4l-1.6-1.1C370.1,113.2,368.4,115.7,366.7,118.3z"/>
	<path class="st1" d="M352.9,141.5c-1.6,2.4-3.3,4.9-5,7.4l1.6,1.2c1.8-2.5,3.5-5,5.1-7.5L352.9,141.5z"/>
	<path class="st1" d="M298.8,201l1.3,1.5c2.3-2,4.6-4,6.8-5.9l-1.3-1.5C303.4,197.1,301.1,199.1,298.8,201z"/>
	<path class="st1" d="M562.8,71c-3-0.4-6-0.9-8.8-1.5l-0.4,2c2.9,0.6,5.9,1.1,9,1.5L562.8,71z"/>
	<path class="st1" d="M580.6,74l0-2c-3,0.1-6,0-8.9-0.2l-0.1,2c2.2,0.1,4.5,0.2,6.8,0.2C579.1,74,579.9,74,580.6,74z"/>
	<path class="st1" d="M545.4,67.3c-3-1-5.7-2.1-8.2-3.3l-0.9,1.8c2.6,1.2,5.4,2.4,8.5,3.4L545.4,67.3z"/>
	<path class="st1" d="M655.2,480.9l1.9,0.5c0.8-3.1,1.4-6.1,1.9-8.9l-2-0.3C656.5,474.9,655.9,477.9,655.2,480.9z"/>
	<path class="st1" d="M636.8,531.1l-0.1,0.3l1.8,0.8l0.1-0.2c1.3-2.8,2.4-5.4,3.5-8l-1.8-0.8C639.2,525.7,638,528.3,636.8,531.1z"/>
	<path class="st1" d="M529.6,59.5c-2.1-1.5-4.4-3.4-6.9-5.6l-1.3,1.5c2.6,2.3,4.9,4.2,7.1,5.7L529.6,59.5z"/>
	<path class="st1" d="M598.7,72.4l-0.3-2c-2.9,0.5-5.9,0.8-8.9,1.1l0.2,2C592.7,73.2,595.8,72.9,598.7,72.4z"/>
	<path class="st1" d="M647,506.5c-1,2.7-2.1,5.5-3.3,8.4l1.9,0.8c1.2-2.9,2.3-5.7,3.3-8.4L647,506.5z"/>
	<path class="st1" d="M684.6,612.4c1.8,2.3,3.7,4.6,5.7,7l1.5-1.3c-2-2.3-3.9-4.7-5.7-6.9L684.6,612.4z"/>
	<path class="st1" d="M516.1,47.7c-2.1-2-4.4-4.2-6.6-6.1l-1.3,1.5c2.2,2,4.4,4.1,6.6,6.1L516.1,47.7z"/>
	<path class="st1" d="M658.3,454.5c0.1,1,0.1,2,0.1,3.1c0,1.8-0.1,3.8-0.2,5.8l2,0.2c0.2-2,0.3-4,0.3-5.9c0-1.1,0-2.2-0.1-3.2
		L658.3,454.5z"/>
	<path class="st1" d="M632.8,60.3l-1.1-1.7c-2.4,1.5-5,3-7.8,4.3l0.8,1.8C627.6,63.3,630.3,61.9,632.8,60.3z"/>
	<path class="st1" d="M616.3,68.1l-0.6-1.9c-2.7,0.9-5.6,1.8-8.6,2.5l0.5,1.9C610.6,69.9,613.6,69,616.3,68.1z"/>
	<path class="st1" d="M320,184.2l-1.4-1.4c-2.1,2.1-4.3,4.2-6.5,6.2l1.4,1.5C315.7,188.4,317.9,186.3,320,184.2z"/>
	<path class="st1" d="M384.3,97.7l-1.5-1.3c-1.9,2.3-3.8,4.7-5.6,7.1l1.6,1.2C380.5,102.3,382.4,100,384.3,97.7z"/>
	<path class="st1" d="M409.3,72.1l-1.3-1.5c-2.3,2-4.5,4.1-6.7,6.1l1.4,1.5C404.8,76.2,407,74.1,409.3,72.1z"/>
	<path class="st1" d="M452,39.4l-1-1.7c-2.4,1.4-4.9,3.1-7.6,5l1.2,1.6C447.2,42.4,449.7,40.8,452,39.4z"/>
	<path class="st1" d="M423.1,60.6l-1.2-1.6c-2.4,1.9-4.8,3.8-7,5.7l1.3,1.5C418.3,64.4,420.7,62.5,423.1,60.6z"/>
	<path class="st1" d="M326.4,177.8c2.1-2.2,4.2-4.4,6.1-6.6l-1.5-1.3c-0.7,0.8-1.4,1.5-2.1,2.3l-0.1-1.9c-3.2,0.2-6.1,0.4-9,0.4
		l0.1,2c2.8-0.1,5.7-0.2,8.9-0.4c-1.3,1.4-2.6,2.8-3.9,4.2L326.4,177.8z"/>
	<path class="st1" d="M542.4,455.2l1.3,1.5c2.4-1.9,4.7-3.8,7-5.5l-1.2-1.6C547.2,451.4,544.8,453.3,542.4,455.2z"/>
	<path class="st1" d="M344.1,157.3l-1.6-1.2c-1.8,2.3-3.7,4.7-5.6,7l1.5,1.3C340.4,162,342.3,159.6,344.1,157.3z"/>
	<path class="st1" d="M556.8,444.4l1.1,1.7c2.5-1.7,5.1-3.3,7.5-4.8l-1-1.7C562,441,559.4,442.6,556.8,444.4z"/>
	<path class="st1" d="M434,52.2c1.1-0.8,2.2-1.7,3.3-2.5l-1.2-1.6c-1.1,0.8-2.2,1.7-3.3,2.5l-3.8,2.9l1.2,1.6L434,52.2z"/>
	<path class="st1" d="M588.7,427.3l0.8,1.8c2.9-1.3,5.7-2.5,8.2-3.5l-0.7-1.9C594.4,424.8,591.6,425.9,588.7,427.3z"/>
	<path class="st1" d="M619.9,582.8l2,0.4c0.6-2.9,1.2-5.9,1.9-8.8l-1.9-0.5C621.1,576.9,620.4,579.8,619.9,582.8z"/>
	<path class="st1" d="M624,565.2l1.9,0.5c0.8-2.8,1.7-5.7,2.6-8.6l-1.9-0.6C625.8,559.4,624.9,562.4,624,565.2z"/>
	<path class="st1" d="M634.9,540.4l-1.8-0.8c-1.2,2.8-2.3,5.7-3.3,8.4l1.9,0.7C632.6,546,633.7,543.2,634.9,540.4z"/>
	<path class="st1" d="M502.5,35.8c-2.7-2-5.3-3.5-7.9-4.7l-0.8,1.8c2.5,1.1,4.9,2.6,7.6,4.5L502.5,35.8z"/>
	<path class="st1" d="M614.4,418.6c-2.7,0.4-5.6,1.2-8.9,2.2l0.6,1.9c3.1-1,6-1.7,8.6-2.1L614.4,418.6z"/>
</g>
<g id="_x33_">
	<rect x="455.7" y="496.9" class="st4" width="36.1" height="9.9"/>
	<rect x="286" y="496.9" class="st5" width="36.1" height="9.9"/>
	<g>
		<rect x="387" y="510.6" class="st6" width="1.1" height="9.7"/>
		<path class="st6" d="M388,478.9v-20.3h-48.3c-10,0-18.1,8-18.1,17.9v41.6c0,3.2,2.6,5.8,5.8,5.8c2.4,0,4.5-1.5,5.4-3.6h17.5
			c0.3,0.1,0.6,0.1,0.9,0.1c0.3,0,0.6,0,0.9-0.1H387v-9.7h-40.6c0,0,0.1-26.2,0.2-31.7L388,478.9z"/>
		<path class="st7" d="M439.1,458.6H388v20.3l46.5,0.1c0.1,5.8,0.4,31.6,0.4,31.6H388v9.7h39.7c0.3,0.1,0.6,0.1,0.9,0.1
			c0.3,0,0.6,0,0.9-0.1H446c0.9,2.1,2.9,3.6,5.4,3.6c2.4,0,4.5-1.5,5.4-3.6h0.2v-0.7c0.1-0.5,0.2-1,0.2-1.5v-41.6
			C457.2,466.6,449.1,458.6,439.1,458.6z"/>
	</g>
	<path class="st8" d="M277,505.2h-48.8c-5.1,0-9.2,4.1-9.2,9.2v48v135.3v45.1c0,5.1,4.1,9.3,9.2,9.3h45.1H387V505.2H277z"/>
	<path class="st9" d="M542.9,505.2h-45.1H387V752h110.9h45.1c5.1,0,9.2-4.1,9.2-9.3v-45.1V559.5v-45.1
		C552.2,509.3,548,505.2,542.9,505.2z"/>
	<path class="st10" d="M265.2,507.6c0-0.8,0-1.6-0.1-2.4h-38.8c-4.1,0-7.4,3.3-7.4,7.4v38.2c1,0.1,2,0.1,3,0.1
		C245.9,550.9,265.2,531.5,265.2,507.6z"/>
	<path class="st10" d="M552.2,551.4v-38.4c0-4.3-3.5-7.9-7.9-7.9h-38.4C505.9,530.7,526.6,551.4,552.2,551.4z"/>
	<path class="st10" d="M552.2,744.1v-38.4c-25.5,0-46.2,20.7-46.2,46.2h38.4C548.6,752,552.2,748.5,552.2,744.1z"/>
	<path class="st10" d="M219,705.8v38.4c0,4.3,3.5,7.9,7.9,7.9h38.4C265.2,726.5,244.5,705.8,219,705.8z"/>
	<rect x="294.2" y="505.2" class="st11" width="19.9" height="246.8"/>
	<rect x="465.1" y="505.2" class="st11" width="19.9" height="246.8"/>
	<rect x="286.3" y="615.1" class="st2" width="39.1" height="23.7"/>
	<rect x="455.4" y="615.1" class="st2" width="39.1" height="23.7"/>
	<g id="XMLID_457_">
		<polygon id="XMLID_480_" class="st12" points="599.1,131.7 543,132 620.7,77.4 640.7,77.4 		"/>
		<polygon id="XMLID_479_" class="st12" points="686.1,128.8 657.3,128.9 697.2,114.8 707.5,114.8 		"/>
		<path id="XMLID_478_" class="st13" d="M507.7,121.9l184-0.8c17.3-0.1-25.7,31.5-72.5,31.5h-114c-8.4,0-28.2-6.9-28.2-15.3l0,0
			C477.4,130.4,502,121.9,507.7,121.9z"/>
		<path id="XMLID_477_" class="st14" d="M482.8,130.9c2-1.2,4.3-2.4,6.8-3.5h13.2v3.5H482.8z"/>
		<polygon id="XMLID_476_" class="st12" points="608.2,144.1 552.1,143.7 629.8,198.3 649.9,198.3 		"/>
		<polygon id="XMLID_475_" class="st12" points="656.1,122.4 687.9,85.7 702.6,85.7 688.2,122.4 		"/>
		<polygon id="XMLID_474_" class="st12" points="684.1,132.7 655.2,132.5 695.2,160.6 705.5,160.6 		"/>
		<g id="XMLID_458_">
			<rect id="XMLID_473_" x="522.6" y="127.3" class="st14" width="3.5" height="3.5"/>
			<rect id="XMLID_472_" x="529.7" y="127.3" class="st14" width="3.5" height="3.5"/>
			<rect id="XMLID_471_" x="536.8" y="127.3" class="st14" width="3.5" height="3.5"/>
			<rect id="XMLID_470_" x="543.9" y="127.3" class="st14" width="3.5" height="3.5"/>
			<rect id="XMLID_469_" x="551" y="127.3" class="st14" width="3.5" height="3.5"/>
			<rect id="XMLID_468_" x="558.1" y="127.3" class="st14" width="3.5" height="3.5"/>
			<rect id="XMLID_467_" x="565.1" y="127.3" class="st14" width="3.5" height="3.5"/>
			<rect id="XMLID_466_" x="572.2" y="127.3" class="st14" width="3.5" height="3.5"/>
			<rect id="XMLID_465_" x="579.3" y="127.3" class="st14" width="3.5" height="3.5"/>
			<rect id="XMLID_464_" x="586.4" y="127.3" class="st14" width="3.5" height="3.5"/>
			<rect id="XMLID_463_" x="593.5" y="127.3" class="st14" width="3.5" height="3.5"/>
			<rect id="XMLID_462_" x="600.6" y="127.3" class="st14" width="3.5" height="3.5"/>
			<rect id="XMLID_461_" x="607.7" y="127.3" class="st14" width="3.5" height="3.5"/>
			<rect id="XMLID_460_" x="614.8" y="127.3" class="st14" width="3.5" height="3.5"/>
			<rect id="XMLID_459_" x="621.9" y="127.3" class="st14" width="3.5" height="3.5"/>
		</g>
	</g>
	<g id="XMLID_260_">
		<path id="XMLID_282_" class="st15" d="M169.6,321.8l83.3,11.6c2.5,0.3,4.3,2.5,4,4.9l-14.8,106.5c-0.3,2.3-2.6,3.9-5.1,3.6
			l-83.3-11.6L169.6,321.8z"/>
		<path id="XMLID_262_" class="st16" d="M207.2,364c-14.3-2-27.7,8.1-29.6,22.4c-2,14.3,8.1,27.7,22.4,29.6
			c14.3,2,27.7-8.1,29.6-22.4C231.6,379.3,221.5,366,207.2,364L207.2,364z M202.8,365.8L202.8,365.8c-4.1,3-7.4,6.6-9.7,10.5
			c-2.4-0.9-4.7-1.9-7-3.1C190.4,368.7,196.3,366,202.8,365.8L202.8,365.8z M184.4,375.1L184.4,375.1c2.5,1.2,5,2.3,7.6,3.2
			c-1.4,2.8-2.4,5.8-2.9,8.8l-9.4-1.3C180.3,381.8,182,378.1,184.4,375.1L184.4,375.1L184.4,375.1z M179.3,387.7L179.3,387.7
			l9.4,1.3c-0.3,3.1-0.2,6.2,0.4,9.3c-2.7,0.2-5.4,0.5-8.1,1C179.6,395.7,178.9,391.8,179.3,387.7L179.3,387.7L179.3,387.7z
			 M182.1,401.6L182.1,401.6c2.5-0.5,5.1-0.9,7.6-1.1c1.2,4.4,3.4,8.8,6.5,12.8C190.1,411.3,185.1,407,182.1,401.6L182.1,401.6
			L182.1,401.6z M199.3,414L199.3,414c-3.4-4.7-5.8-9.2-7.1-13.6c3-0.1,6,0,9,0.3L199.3,414L199.3,414z M201.4,398.6L201.4,398.6
			c-3.2-0.4-6.5-0.5-9.8-0.5c-0.7-3-0.9-6-0.6-8.9l11.5,1.6L201.4,398.6L201.4,398.6z M202.7,389L202.7,389l-11.5-1.6
			c0.5-2.8,1.5-5.6,3-8.3c3.2,1,6.4,1.7,9.6,2.2L202.7,389L202.7,389z M204.1,379.2L204.1,379.2c-2.9-0.5-5.8-1.2-8.7-2.1
			c2.5-3.9,6-7.6,10.6-11.2L204.1,379.2L204.1,379.2z M227.8,392.5L227.8,392.5l-9.4-1.3c0.3-3.1,0.2-6.2-0.4-9.3
			c2.7-0.2,5.4-0.5,8.2-1C227.5,384.4,228.2,388.4,227.8,392.5L227.8,392.5z M225,378.6L225,378.6c-2.5,0.5-5.1,0.9-7.6,1.1
			c-1.2-4.5-3.4-8.8-6.5-12.8C217.1,368.8,222.1,373.1,225,378.6L225,378.6L225,378.6z M207.9,366.2L207.9,366.2
			c3.4,4.7,5.8,9.2,7.1,13.7c-3,0.1-6,0-9-0.4L207.9,366.2L207.9,366.2L207.9,366.2z M205.7,381.5L205.7,381.5
			c3.2,0.4,6.5,0.5,9.8,0.5c0.7,3,0.9,6,0.6,8.8l-11.5-1.6L205.7,381.5L205.7,381.5z M204.4,391.2L204.4,391.2l11.5,1.6
			c-0.5,2.9-1.5,5.6-3,8.4c-3.2-1-6.4-1.7-9.6-2.2L204.4,391.2L204.4,391.2z M203,400.9L203,400.9c2.9,0.5,5.9,1.1,8.7,2.1
			c-2.5,3.9-6,7.6-10.6,11.2L203,400.9L203,400.9L203,400.9z M204.3,414.4L204.3,414.4c4.1-3,7.4-6.6,9.7-10.6
			c2.4,0.9,4.7,1.9,7,3.1C216.7,411.4,210.8,414.2,204.3,414.4L204.3,414.4z M222.7,405.1L222.7,405.1c-2.5-1.2-5-2.3-7.6-3.2
			c1.4-2.8,2.4-5.8,2.9-8.8l9.4,1.3C226.8,398.4,225.1,402,222.7,405.1L222.7,405.1z"/>
		<text id="XMLID_261_" transform="matrix(0.9811 0.136 -0.1373 0.9905 182.88 354.2352)"><tspan x="0" y="0" class="st1 st17 st18">P</tspan><tspan x="7.3" y="0" class="st1 st17 st18">ASSPORT</tspan></text>
	</g>
	<g id="XMLID_429_">
		<path id="XMLID_439_" class="st19" d="M330,234l18.4-2.3c1-0.1,1.9,0.6,2.1,1.6l0.6,4.9c0.1,1-0.6,1.9-1.6,2.1l-18.4,2.3
			c-1,0.1-1.9-0.6-2.1-1.6l-0.6-4.9C328.3,235,329,234.1,330,234z"/>
		<path id="XMLID_438_" class="st19" d="M413.6,223.3l18.4-2.3c1-0.1,1.9,0.6,2.1,1.6l0.6,4.9c0.1,1-0.6,1.9-1.6,2.1l-18.4,2.3
			c-1,0.1-1.9-0.6-2.1-1.6l-0.6-4.9C411.9,224.3,412.6,223.4,413.6,223.3z"/>
		<path id="XMLID_437_" class="st20" d="M321.5,240.3L441.6,225c2.8-0.4,5.4,1.7,5.8,4.5l8.8,69.1c0.4,2.8-1.7,5.4-4.5,5.8
			l-120.1,15.3c-2.8,0.4-5.4-1.7-5.8-4.5l-8.8-69.1C316.6,243.2,318.7,240.6,321.5,240.3z"/>
		<path id="XMLID_436_" class="st21" d="M321.5,240.3L441.6,225c2.8-0.4,5.4,1.7,5.8,4.5l2,15.9L319,262l-2-15.9
			C316.6,243.2,318.7,240.6,321.5,240.3z"/>
		<path id="XMLID_435_" class="st21" d="M455.1,290.2l1.3,9.8c0.3,2-1.8,4-4.7,4.3l-120.1,15.3c-2.8,0.4-5.4-1-5.6-3l-1.3-9.8
			L455.1,290.2z"/>
		
			<ellipse id="XMLID_434_" transform="matrix(0.992 -0.1266 0.1266 0.992 -31.3613 51.1275)" class="st22" cx="386.6" cy="272.3" rx="34.3" ry="34.3"/>
		
			<ellipse id="XMLID_433_" transform="matrix(0.992 -0.1266 0.1266 0.992 -31.3606 51.1264)" class="st19" cx="386.6" cy="272.3" rx="26.4" ry="26.4"/>
		
			<ellipse id="XMLID_432_" transform="matrix(0.992 -0.1266 0.1266 0.992 -31.3612 51.1274)" class="st23" cx="386.6" cy="272.3" rx="12.4" ry="12.4"/>
		
			<rect id="XMLID_431_" x="329.1" y="244.1" transform="matrix(0.992 -0.1266 0.1266 0.992 -28.8111 44.6522)" class="st22" width="15.6" height="9.9"/>
		
			<rect id="XMLID_430_" x="411.1" y="231.6" transform="matrix(0.992 -0.1266 0.1266 0.992 -26.6243 55.7493)" class="st22" width="28.4" height="11.6"/>
	</g>
	<g id="XMLID_417_">
		<path id="XMLID_428_" class="st24" d="M50.2,572.8c2.8,3.9,6.3,4.1,9.8,4.1c6.3,0,6.3,0,6.3,0h111.1c5.2-1.4,5.2-9.1,4.1-19.1
			c-0.9-8.5-1-14.6-9.4-16.2c-9.1-1.7-20.4-1.3-22.1-3.7c-6.8-9.1-15.7-18.6-21.8-21.4c-5.5-2.6-59.3-2.3-63.7-0.1
			c-3.9,2-11.5,14.1-13.9,22c-0.3,1-3.4,5-3.6,5.8C44.4,552.8,44.4,564.8,50.2,572.8z"/>
		<path id="XMLID_427_" class="st25" d="M114.1,539h33.1c-6.1-7.5-13.9-16.8-19.6-19.2c-1.3-0.6-6.5-1-13.4-1.2L114.1,539z"/>
		<path id="XMLID_426_" class="st25" d="M84.6,539h26.6l0.1-20.5c-8.1-0.2-18-0.2-26.6,0L84.6,539z"/>
		<path id="XMLID_425_" class="st25" d="M81.8,518.6c-8.8,0.2-15.7,0.6-17,1.2c-3.8,1.7-9.3,13.2-11.3,19.2h28.2L81.8,518.6z"/>
		<path id="XMLID_424_" class="st26" d="M46.4,568c0.8,4.9,2.2,9,5.1,9c42.3,0,84.7,0,127,0c0,0,3.9-1.7,4.6-9H50H46.4z"/>
		<path id="XMLID_423_" class="st27" d="M94.7,577c0-11.1-7.6-20-16.9-20c-9.4,0-16.9,9-16.9,20H94.7z"/>
		<circle id="XMLID_422_" class="st25" cx="77.6" cy="573.4" r="13.2"/>
		<circle id="XMLID_421_" class="st28" cx="77.6" cy="573.4" r="8.2"/>
		<path id="XMLID_420_" class="st27" d="M166.4,577c0-11.1-7.6-20-16.9-20c-9.4,0-16.9,9-16.9,20H166.4z"/>
		<circle id="XMLID_419_" class="st25" cx="149.3" cy="573.4" r="13.2"/>
		<circle id="XMLID_418_" class="st28" cx="149.3" cy="573.4" r="8.2"/>
	</g>
	<path id="XMLID_283_" class="st29" d="M698.3,275c17.7,0,32.1,14.4,32.1,32.1c0,17.7-32.1,68.9-32.1,68.9s-32.1-51.2-32.1-68.9
		C666.2,289.4,680.5,275,698.3,275L698.3,275z M698.3,288c-9,0-16.4,7.3-16.4,16.4c0,9,7.3,16.4,16.4,16.4c9,0,16.4-7.3,16.4-16.4
		C714.6,295.3,707.3,288,698.3,288z"/>
	<g id="XMLID_664_">
		<g>
			<path id="XMLID_280_" class="st1" d="M169.8,77.4c1.3-0.8,3.1-1.3,4.6-1.7c-24.5,5.1-47.5,27.9-47.5,54.8
				c0,35.9,35.2,62,43.8,67.8C103.3,114.4,169.8,77.4,169.8,77.4z"/>
			<path id="XMLID_276_" class="st1" d="M175.2,198.6l6.1,0c-24-84.1,0-123.3,0-123.3c0.5-0.2,1-0.4,1.4-0.6
				c-2.3,0.1-4.5,0.3-6.8,0.7c0.9-0.1,1.5-0.2,1.5-0.2C132.2,111.2,171.7,191.6,175.2,198.6z"/>
			<path id="XMLID_259_" class="st1" d="M189.7,198.5l6,0c3.8-7.2,44.4-86.6-0.7-122.5c0,0,0-0.1,0.4,0c-2.4-0.5-4.8-0.9-7.2-1.1
				c0.1,0,0.1,0.1,0.1,0.1C208,111.6,190.7,193.8,189.7,198.5z"/>
			<path id="XMLID_258_" class="st1" d="M200.6,197.9c8.8-6.8,41.6-34,42.2-67.4c0.5-24.1-18.9-44.9-40.7-52.7
				C209.7,82.7,262.8,120,200.6,197.9z"/>
			<path id="XMLID_257_" class="st1" d="M175.2,198.6c-3.5-7-43-87.4,2.2-123.4c0,0-0.6,0.1-1.5,0.2c-0.5,0.1-1,0.2-1.5,0.3
				c-1.5,0.3-3.3,0.9-4.6,1.7c0,0-66.5,37,0.8,120.9c0.2,0.1,0.3,0.2,0.4,0.3L175.2,198.6z"/>
			<path id="XMLID_256_" class="st1" d="M195.1,76c45,35.9,4.5,115.3,0.7,122.5l4,0l-0.1,0.1c0.3-0.2,0.6-0.4,0.9-0.7
				c62.2-77.9,9.1-115.3,1.5-120.1c-2.2-0.8-4.4-1.4-6.6-1.9C195.1,75.9,195.1,76,195.1,76z"/>
			<path id="XMLID_255_" class="st1" d="M181.2,198.6l8.5,0c1-4.8,18.2-87-1.3-123.6c0,0-0.1,0-0.1-0.1c-1.3-0.1-2.6-0.2-4-0.2
				c-0.5,0-1.1,0-1.6,0c-0.5,0.1-0.9,0.3-1.4,0.6C181.3,75.3,157.3,114.4,181.2,198.6z"/>
			<polygon id="XMLID_254_" class="st1" points="173.8,217.5 172.1,202.2 172.7,202.1 173.1,206.4 175,202.7 175.5,202.9 
				173.3,207.4 174.4,217.4 			"/>
			<polygon id="XMLID_253_" class="st1" points="196.5,217.2 197.5,207.5 194.8,202.7 195.2,202.4 197.6,206.5 198.1,202.1 
				198.7,202.2 197.1,217.3 			"/>
			<path id="XMLID_252_" class="st1" d="M197.4,230.6c1.6-3.9,0-13.6,0-13.6h-23.9c0,0-1.6,9.6,0,13.6
				C174.8,233.8,196.1,233.8,197.4,230.6z"/>
			<polygon id="XMLID_251_" class="st1" points="184.9,217.4 185,207.5 181.5,203 181.9,202.7 185,206.6 185,200.9 185.6,200.9 
				185.5,206.5 188.2,202.6 188.7,202.9 185.5,207.5 185.5,217.4 			"/>
			<path id="XMLID_250_" class="st1" d="M197.3,217.2c-0.7,1.6-2.2,2.7-4.2,3.1c-2.7,0.5-5.7-0.5-7.6-2.5l-0.1,0.1l-0.1-0.1
				c-6.3,4.8-9.7,2.2-11.7-0.1l-0.3,0.2c1.7,2,3.5,3,5.6,3c2,0,4.1-0.9,6.5-2.7c1.6,1.7,4,2.6,6.3,2.6c0.5,0,1,0,1.5-0.1
				c2.2-0.4,3.8-1.6,4.5-3.3L197.3,217.2z"/>
			<polygon id="XMLID_249_" class="st1" points="173.6,217.4 173.6,219.6 173.2,219.6 173.2,217.4 			"/>
			<path id="XMLID_248_" class="st1" d="M173.8,219.5c1.5,1,2.5,5.1-0.4,5.2c-3-0.1-1.9-4.2-0.4-5.2c-0.1-0.2-0.2-0.5-0.2-0.5
				c0,0,0.3,0.2,0.3,0.2c0,0,0.2-0.3,0.2-0.3l0.2,0.3l0.4-0.2L173.8,219.5z"/>
			<path id="XMLID_247_" class="st1" d="M173.8,219.5c0.4,0.2,0.7,0.7,1,1.2c-0.4,1.6-1.4,3-2.6,3.6c-1.4-1.1-0.5-4,0.8-4.8
				c-0.1-0.2-0.2-0.5-0.2-0.5c0,0,0.3,0.2,0.3,0.2c0,0,0.2-0.3,0.2-0.3l0.2,0.3l0.4-0.2L173.8,219.5z"/>
			<polygon id="XMLID_246_" class="st1" points="173,219.4 173.8,219.4 173.9,219.6 172.9,219.6 			"/>
			<polygon id="XMLID_245_" class="st1" points="185.4,217.4 185.4,219.6 185,219.6 185,217.4 			"/>
			<path id="XMLID_244_" class="st1" d="M185.6,219.5c1.5,1,2.5,5.1-0.4,5.2c-3-0.1-1.9-4.2-0.4-5.2c-0.1-0.2-0.2-0.5-0.2-0.5
				c0,0,0.3,0.2,0.3,0.2c0,0,0.2-0.3,0.2-0.3l0.2,0.3l0.4-0.2L185.6,219.5z"/>
			<path id="XMLID_243_" class="st1" d="M185.6,219.5c0.4,0.2,0.7,0.7,1,1.2c-0.4,1.6-1.4,3-2.6,3.6c-1.4-1.1-0.5-4,0.8-4.8
				c-0.1-0.2-0.2-0.5-0.2-0.5c0,0,0.3,0.2,0.3,0.2c0,0,0.2-0.3,0.2-0.3l0.2,0.3l0.4-0.2L185.6,219.5z"/>
			<polygon id="XMLID_242_" class="st1" points="184.7,219.4 185.6,219.5 185.7,219.6 184.6,219.6 			"/>
			<polygon id="XMLID_241_" class="st1" points="197.2,217.3 197.2,219.5 196.8,219.5 196.8,217.3 			"/>
			<path id="XMLID_240_" class="st1" d="M197.4,219.4c1.5,1,2.5,5.1-0.4,5.2c-3-0.1-1.9-4.2-0.4-5.2c-0.1-0.2-0.2-0.5-0.2-0.5
				c0,0,0.3,0.2,0.3,0.2c0,0,0.2-0.3,0.2-0.3l0.2,0.3l0.4-0.2L197.4,219.4z"/>
			<path id="XMLID_239_" class="st1" d="M197.4,219.4c0.4,0.2,0.7,0.7,1,1.2c-0.4,1.6-1.4,3-2.6,3.6c-1.4-1.1-0.5-4,0.8-4.8
				c-0.1-0.2-0.2-0.5-0.2-0.5c0,0,0.3,0.2,0.3,0.2c0,0,0.2-0.3,0.2-0.3l0.2,0.3l0.4-0.2L197.4,219.4z"/>
			<polygon id="XMLID_238_" class="st1" points="196.5,219.2 197.4,219.3 197.5,219.5 196.4,219.5 			"/>
			<rect id="XMLID_237_" x="172.8" y="216.6" class="st1" width="25.7" height="1.4"/>
			<polygon id="XMLID_236_" class="st1" points="198.5,203.1 172.2,203.1 165.6,194.8 204.7,194.8 			"/>
			<path id="XMLID_233_" class="st1" d="M171.4,202.1l-1-1.2h29.6l-0.9,1.2H171.4L171.4,202.1z M167.5,197.2L167.5,197.2l-1-1.2
				h37.3l-0.9,1.2H167.5z"/>
		</g>
		<g>
			<path id="XMLID_232_" class="st30" d="M169.8,77.4c1.3-0.8,3.1-1.3,4.6-1.7c-24.5,5.1-47.5,27.9-47.5,54.8
				c0,35.9,35.2,62,43.8,67.8C103.3,114.4,169.8,77.4,169.8,77.4z"/>
			<path id="XMLID_231_" class="st30" d="M175.2,198.6l6.1,0c-24-84.1,0-123.3,0-123.3c0.5-0.2,1-0.4,1.4-0.6
				c-2.3,0.1-4.5,0.3-6.8,0.7c0.9-0.1,1.5-0.2,1.5-0.2C132.2,111.2,171.7,191.6,175.2,198.6z"/>
			<path id="XMLID_230_" class="st30" d="M189.7,198.5l6,0c3.8-7.2,44.4-86.6-0.7-122.5c0,0,0-0.1,0.4,0c-2.4-0.5-4.8-0.9-7.2-1.1
				c0.1,0,0.1,0.1,0.1,0.1C208,111.6,190.7,193.8,189.7,198.5z"/>
			<path id="XMLID_229_" class="st30" d="M200.6,197.9c8.8-6.8,41.6-34,42.2-67.4c0.5-24.1-18.9-44.9-40.7-52.7
				C209.7,82.7,262.8,120,200.6,197.9z"/>
			<path id="XMLID_228_" class="st31" d="M175.2,198.6c-3.5-7-43-87.4,2.2-123.4c0,0-0.6,0.1-1.5,0.2c-0.5,0.1-1,0.2-1.5,0.3
				c-1.5,0.3-3.3,0.9-4.6,1.7c0,0-66.5,37,0.8,120.9c0.2,0.1,0.3,0.2,0.4,0.3L175.2,198.6z"/>
			<path id="XMLID_227_" class="st31" d="M195.1,76c45,35.9,4.5,115.3,0.7,122.5l4,0l-0.1,0.1c0.3-0.2,0.6-0.4,0.9-0.7
				c62.2-77.9,9.1-115.3,1.5-120.1c-2.2-0.8-4.4-1.4-6.6-1.9C195.1,75.9,195.1,76,195.1,76z"/>
			<path id="XMLID_226_" class="st31" d="M181.2,198.6l8.5,0c1-4.8,18.2-87-1.3-123.6c0,0-0.1,0-0.1-0.1c-1.3-0.1-2.6-0.2-4-0.2
				c-0.5,0-1.1,0-1.6,0c-0.5,0.1-0.9,0.3-1.4,0.6C181.3,75.3,157.3,114.4,181.2,198.6z"/>
			<polygon id="XMLID_225_" class="st32" points="173.8,217.5 172.1,202.2 172.7,202.1 173.1,206.4 175,202.7 175.5,202.9 
				173.3,207.4 174.4,217.4 			"/>
			<polygon id="XMLID_224_" class="st32" points="196.5,217.2 197.5,207.5 194.8,202.7 195.2,202.4 197.6,206.5 198.1,202.1 
				198.7,202.2 197.1,217.3 			"/>
			<path id="XMLID_223_" class="st33" d="M197.4,230.6c1.6-3.9,0-13.6,0-13.6h-23.9c0,0-1.6,9.6,0,13.6
				C174.8,233.8,196.1,233.8,197.4,230.6z"/>
			<polygon id="XMLID_222_" class="st32" points="184.9,217.4 185,207.5 181.5,203 181.9,202.7 185,206.6 185,200.9 185.6,200.9 
				185.5,206.5 188.2,202.6 188.7,202.9 185.5,207.5 185.5,217.4 			"/>
			<path id="XMLID_221_" class="st32" d="M197.3,217.2c-0.7,1.6-2.2,2.7-4.2,3.1c-2.7,0.5-5.7-0.5-7.6-2.5l-0.1,0.1l-0.1-0.1
				c-6.3,4.8-9.7,2.2-11.7-0.1l-0.3,0.2c1.7,2,3.5,3,5.6,3c2,0,4.1-0.9,6.5-2.7c1.6,1.7,4,2.6,6.3,2.6c0.5,0,1,0,1.5-0.1
				c2.2-0.4,3.8-1.6,4.5-3.3L197.3,217.2z"/>
			<polygon id="XMLID_220_" class="st32" points="173.6,217.4 173.6,219.6 173.2,219.6 173.2,217.4 			"/>
			<path id="XMLID_219_" class="st34" d="M173.8,219.5c1.5,1,2.5,5.1-0.4,5.2c-3-0.1-1.9-4.2-0.4-5.2c-0.1-0.2-0.2-0.5-0.2-0.5
				c0,0,0.3,0.2,0.3,0.2c0,0,0.2-0.3,0.2-0.3l0.2,0.3l0.4-0.2L173.8,219.5z"/>
			<path id="XMLID_218_" class="st35" d="M173.8,219.5c0.4,0.2,0.7,0.7,1,1.2c-0.4,1.6-1.4,3-2.6,3.6c-1.4-1.1-0.5-4,0.8-4.8
				c-0.1-0.2-0.2-0.5-0.2-0.5c0,0,0.3,0.2,0.3,0.2c0,0,0.2-0.3,0.2-0.3l0.2,0.3l0.4-0.2L173.8,219.5z"/>
			<polygon id="XMLID_217_" class="st32" points="173,219.4 173.8,219.4 173.9,219.6 172.9,219.6 			"/>
			<polygon id="XMLID_216_" class="st32" points="185.4,217.4 185.4,219.6 185,219.6 185,217.4 			"/>
			<path id="XMLID_215_" class="st34" d="M185.6,219.5c1.5,1,2.5,5.1-0.4,5.2c-3-0.1-1.9-4.2-0.4-5.2c-0.1-0.2-0.2-0.5-0.2-0.5
				c0,0,0.3,0.2,0.3,0.2c0,0,0.2-0.3,0.2-0.3l0.2,0.3l0.4-0.2L185.6,219.5z"/>
			<path id="XMLID_214_" class="st35" d="M185.6,219.5c0.4,0.2,0.7,0.7,1,1.2c-0.4,1.6-1.4,3-2.6,3.6c-1.4-1.1-0.5-4,0.8-4.8
				c-0.1-0.2-0.2-0.5-0.2-0.5c0,0,0.3,0.2,0.3,0.2c0,0,0.2-0.3,0.2-0.3l0.2,0.3l0.4-0.2L185.6,219.5z"/>
			<polygon id="XMLID_213_" class="st32" points="184.7,219.4 185.6,219.5 185.7,219.6 184.6,219.6 			"/>
			<polygon id="XMLID_212_" class="st32" points="197.2,217.3 197.2,219.5 196.8,219.5 196.8,217.3 			"/>
			<path id="XMLID_211_" class="st34" d="M197.4,219.4c1.5,1,2.5,5.1-0.4,5.2c-3-0.1-1.9-4.2-0.4-5.2c-0.1-0.2-0.2-0.5-0.2-0.5
				c0,0,0.3,0.2,0.3,0.2c0,0,0.2-0.3,0.2-0.3l0.2,0.3l0.4-0.2L197.4,219.4z"/>
			<path id="XMLID_210_" class="st35" d="M197.4,219.4c0.4,0.2,0.7,0.7,1,1.2c-0.4,1.6-1.4,3-2.6,3.6c-1.4-1.1-0.5-4,0.8-4.8
				c-0.1-0.2-0.2-0.5-0.2-0.5c0,0,0.3,0.2,0.3,0.2c0,0,0.2-0.3,0.2-0.3l0.2,0.3l0.4-0.2L197.4,219.4z"/>
			<polygon id="XMLID_209_" class="st32" points="196.5,219.2 197.4,219.3 197.5,219.5 196.4,219.5 			"/>
			<rect id="XMLID_208_" x="172.8" y="216.6" class="st35" width="25.7" height="1.4"/>
			<polygon id="XMLID_207_" class="st30" points="198.5,203.1 172.2,203.1 165.6,194.8 204.7,194.8 			"/>
			<path id="XMLID_204_" class="st31" d="M171.4,202.1l-1-1.2h29.6l-0.9,1.2H171.4L171.4,202.1z M167.5,197.2L167.5,197.2l-1-1.2
				h37.3l-0.9,1.2H167.5z"/>
		</g>
	</g>
	<g id="XMLID_390_">
		<g>
			<polygon id="XMLID_60_" class="st1" points="735.6,631.5 732,634.6 729.2,637 719.1,645.6 642.9,645.6 632.8,637 630,634.6 
				626.3,631.5 			"/>
			<polygon id="XMLID_59_" class="st1" points="728.3,637.7 719.1,645.6 642.9,645.6 633.6,637.7 633.6,637.7 			"/>
			<path id="XMLID_58_" class="st1" d="M674.8,629.9h-32c2.9-27.9,14.8-53.7,32-78.3V629.9z"/>
			<path id="XMLID_57_" class="st1" d="M722,629.9h-43.6V523c4.7,6.7,9,13.4,13.1,20.3c3.8,6.3,7.3,12.8,10.4,19.2
				c4.9,9.9,9,20,12.2,30.2c2,6.3,3.7,12.8,5,19.2C720.4,617.9,721.4,623.8,722,629.9z"/>
		</g>
		<g>
			<polygon id="XMLID_56_" class="st36" points="735.6,631.5 732,634.6 729.2,637 719.1,645.6 642.9,645.6 632.8,637 630,634.6 
				626.3,631.5 			"/>
			<polygon id="XMLID_55_" class="st16" points="728.3,637.7 719.1,645.6 642.9,645.6 633.6,637.7 633.6,637.7 			"/>
			<path id="XMLID_54_" class="st16" d="M674.8,629.9h-32c2.9-27.9,14.8-53.7,32-78.3V629.9z"/>
			<path id="XMLID_53_" class="st37" d="M722,629.9h-43.6V523c4.7,6.7,9,13.4,13.1,20.3c3.8,6.3,7.3,12.8,10.4,19.2
				c4.9,9.9,9,20,12.2,30.2c2,6.3,3.7,12.8,5,19.2C720.4,617.9,721.4,623.8,722,629.9z"/>
		</g>
	</g>
	<g id="XMLID_395_">
		<g>
			<path id="XMLID_97_" class="st1" d="M579,382.3c0,5.6-1.1,11-3,15.9c-4.5,11.6-13.7,20.8-25.3,25.3c-4.9,1.9-10.3,3-15.9,3
				c-5.6,0-11-1.1-15.9-3c-3.1-1.2-6.1-2.8-8.8-4.6c-4.7-3.2-8.7-7.2-11.9-11.9c-1.9-2.7-3.4-5.7-4.6-8.8c-1.9-4.9-3-10.3-3-15.9
				c0-5.6,1-11,3-15.9c4.5-11.6,13.7-20.8,25.3-25.3c0.4-0.2,0.8-0.3,1.2-0.5c0.3-0.1,0.7-0.2,1-0.3c0.5-0.2,1-0.3,1.5-0.5
				c0.4-0.1,0.8-0.2,1.2-0.3l0.2,0c0.4-0.1,0.8-0.2,1.2-0.3c0.9-0.2,1.8-0.4,2.6-0.5c0.4-0.1,0.8-0.1,1.1-0.2l0.2,0
				c0.8-0.1,1.7-0.2,2.5-0.2c0.2,0,0.4,0,0.6,0c0.3,0,0.6,0,0.9,0c0.5,0,1.1,0,1.6,0c0.6,0,1.1,0,1.6,0c0.3,0,0.6,0,0.9,0
				c0.2,0,0.4,0,0.6,0c0.9,0,1.7,0.1,2.5,0.2l0.2,0c0.4,0,0.8,0.1,1.1,0.2c0.9,0.1,1.8,0.3,2.6,0.5c0.4,0.1,0.8,0.2,1.2,0.3l0.2,0
				c0.4,0.1,0.8,0.2,1.2,0.3c0.5,0.2,1,0.3,1.5,0.5c0.3,0.1,0.7,0.2,1,0.3c0.4,0.1,0.8,0.3,1.2,0.5c3.8,1.5,7.3,3.4,10.5,5.8
				c3.4,2.6,6.5,5.6,9.1,9.1c2.4,3.2,4.3,6.7,5.8,10.5C577.9,371.3,579,376.7,579,382.3z"/>
			<polygon id="XMLID_96_" class="st1" points="530.8,386.3 514.9,362.4 538.7,378.3 			"/>
			<polygon id="XMLID_95_" class="st1" points="530.8,386.3 534.8,388.9 534.8,388.9 554.6,402.2 538.7,378.3 534.8,382.3 
				534.8,382.3 			"/>
			<rect id="XMLID_94_" x="528" y="333.9" class="st1" width="11.1" height="6.8"/>
			<rect id="XMLID_93_" x="525.4" y="330" class="st1" width="16.2" height="5.9"/>
			<path id="XMLID_90_" class="st1" d="M568,395.1c-3.6,9.4-11.1,16.8-20.4,20.4l-0.1,0.1l-0.1,0.1l-0.1,0.1l-0.1,0.1l-0.1,0h0
				l-0.1,0l-0.1,0h0l-0.1,0l0,0l-0.1,0h0l-0.1,0h0l-0.1,0h0l-0.1,0h0l-0.1,0h0l-0.1,0h0l-0.1,0l0,0l-0.1,0h0l-0.1,0h0l-0.1,0h0
				l-0.1,0h0l-0.1,0l0,0l-0.1,0h0l-0.1,0h0l-0.1,0h0l-0.1,0h0l-0.1,0h0l-0.1,0h0l-0.1,0h0l-0.1,0h0l-0.1,0h0l-0.1,0h0l-0.1,0h0
				l-0.1,0h0l-0.1,0h0l-0.1,0h0l-0.1,0h0l-0.1,0h0l-0.3,0.1h0l-0.3,0.1h0l-0.1,0l-0.1,0h0l-0.1,0h0l-0.1,0h0l-0.1,0h0l-0.1,0h0
				l-0.1,0h0l-0.3,0.1l-0.1,0h0l-0.1,0h0l-0.1,0h0l-0.1,0h0l-0.1,0h0l-0.1,0h0l-0.1,0h0l-0.1,0h0l-0.1,0h0l-0.1,0h0l-0.1,0h0l-0.1,0
				h0l-0.1,0h0l-0.1,0h0l-0.1,0h0c-1.2,0.1-2.5,0.2-3.8,0.2c-1.3,0-2.5-0.1-3.8-0.2c-3.2-0.3-6.2-1.1-9.1-2.2
				c-9.4-3.6-16.8-11.1-20.4-20.4c-1.1-2.9-1.9-5.9-2.2-9.1c-0.1-1.2-0.2-2.5-0.2-3.8s0.1-2.5,0.2-3.8c0.3-3.2,1.1-6.2,2.2-9.1
				c3.6-9.4,11.1-16.8,20.4-20.4c2.3-0.9,4.7-1.6,7.3-2c0.6-0.1,1.2-0.2,1.8-0.2c1.2-0.1,2.5-0.2,3.8-0.2c1.3,0,2.5,0.1,3.8,0.2
				c0.6,0.1,1.2,0.1,1.8,0.2c2.5,0.4,4.9,1.1,7.3,2c9.4,3.6,16.8,11.1,20.4,20.4l0.1,0.1l0.1,0.1l0.1,0.1l0.1,0.1l0,0.1l0,0l0,0.1
				l0,0l0,0.1l0,0l0,0.1l0,0l0,0.1v0l0,0.1l0,0l0,0.1v0l0,0.1v0l0,0.1v0l0,0.1v0l0,0.1v0l0,0.1v0l0,0.1v0l0,0.1v0l0,0.1v0l0,0.1v0
				l0,0.1v0l0,0.1v0l0.1,0.3v0c0.1,0.2,0.1,0.5,0.2,0.7v0c0.4,1.6,0.7,3.3,0.9,5.1c0.1,1.2,0.2,2.5,0.2,3.8s-0.1,2.5-0.2,3.8
				c-0.2,2.1-0.6,4.2-1.2,6.2v0l-0.1,0.3v0l-0.1,0.3v0l0,0.1v0l0,0.1v0l0,0.1v0l0,0.1v0l0,0.1v0l0,0.1v0l0,0.1l0,0l0,0.1l0,0l0,0.1
				v0l0,0.1l0,0l0,0.1l0,0l0,0.1l0,0l0,0.1l-0.1,0.1l-0.1,0.1l-0.1,0.1L568,395.1L568,395.1z M576,366.3c-1.5-3.8-3.4-7.3-5.8-10.5
				c-2.6-3.4-5.6-6.5-9.1-9.1c-3.2-2.4-6.7-4.3-10.5-5.8c-0.4-0.2-0.8-0.3-1.2-0.5c-0.3-0.1-0.7-0.2-1-0.3c-0.5-0.2-1-0.3-1.5-0.5
				c-0.4-0.1-0.8-0.2-1.2-0.3l-0.2,0c-0.4-0.1-0.8-0.2-1.2-0.3c-0.9-0.2-1.8-0.4-2.6-0.5c-0.4-0.1-0.8-0.1-1.1-0.2l-0.2,0
				c-0.8-0.1-1.7-0.2-2.5-0.2c-0.2,0-0.4,0-0.6,0c-0.3,0-0.6,0-0.9,0c-0.5,0-1.1,0-1.6,0c-0.5,0-1.1,0-1.6,0c-0.3,0-0.6,0-0.9,0
				c-0.2,0-0.4,0-0.6,0c-0.9,0.1-1.7,0.1-2.5,0.2l-0.2,0c-0.4,0-0.8,0.1-1.1,0.2c-0.9,0.1-1.8,0.3-2.6,0.5c-0.4,0.1-0.8,0.2-1.2,0.3
				l-0.2,0c-0.4,0.1-0.8,0.2-1.2,0.3c-0.5,0.2-1,0.3-1.5,0.5c-0.3,0.1-0.7,0.2-1,0.3c-0.4,0.1-0.8,0.3-1.2,0.5
				c-11.6,4.5-20.8,13.7-25.3,25.3c-1.9,4.9-3,10.3-3,15.9c0,5.6,1,11,3,15.9c1.2,3.1,2.8,6.1,4.6,8.8c3.2,4.7,7.2,8.7,11.9,11.9
				c2.7,1.9,5.7,3.4,8.8,4.6c4.9,1.9,10.3,3,15.9,3c5.6,0,11-1.1,15.9-3c11.6-4.5,20.8-13.7,25.3-25.3c1.9-4.9,3-10.3,3-15.9
				C579,376.7,577.9,371.3,576,366.3z"/>
		</g>
		<g>
			<path id="XMLID_89_" class="st38" d="M579,382.3c0,5.6-1.1,11-3,15.9c-4.5,11.6-13.7,20.8-25.3,25.3c-4.9,1.9-10.3,3-15.9,3
				c-5.6,0-11-1.1-15.9-3c-3.1-1.2-6.1-2.8-8.8-4.6c-4.7-3.2-8.7-7.2-11.9-11.9c-1.9-2.7-3.4-5.7-4.6-8.8c-1.9-4.9-3-10.3-3-15.9
				c0-5.6,1-11,3-15.9c4.5-11.6,13.7-20.8,25.3-25.3c0.4-0.2,0.8-0.3,1.2-0.5c0.3-0.1,0.7-0.2,1-0.3c0.5-0.2,1-0.3,1.5-0.5
				c0.4-0.1,0.8-0.2,1.2-0.3l0.2,0c0.4-0.1,0.8-0.2,1.2-0.3c0.9-0.2,1.8-0.4,2.6-0.5c0.4-0.1,0.8-0.1,1.1-0.2l0.2,0
				c0.8-0.1,1.7-0.2,2.5-0.2c0.2,0,0.4,0,0.6,0c0.3,0,0.6,0,0.9,0c0.5,0,1.1,0,1.6,0c0.6,0,1.1,0,1.6,0c0.3,0,0.6,0,0.9,0
				c0.2,0,0.4,0,0.6,0c0.9,0,1.7,0.1,2.5,0.2l0.2,0c0.4,0,0.8,0.1,1.1,0.2c0.9,0.1,1.8,0.3,2.6,0.5c0.4,0.1,0.8,0.2,1.2,0.3l0.2,0
				c0.4,0.1,0.8,0.2,1.2,0.3c0.5,0.2,1,0.3,1.5,0.5c0.3,0.1,0.7,0.2,1,0.3c0.4,0.1,0.8,0.3,1.2,0.5c3.8,1.5,7.3,3.4,10.5,5.8
				c3.4,2.6,6.5,5.6,9.1,9.1c2.4,3.2,4.3,6.7,5.8,10.5C577.9,371.3,579,376.7,579,382.3z"/>
			<polygon id="XMLID_88_" class="st39" points="530.8,386.3 514.9,362.4 538.7,378.3 			"/>
			<polygon id="XMLID_87_" class="st40" points="530.8,386.3 534.8,388.9 534.8,388.9 554.6,402.2 538.7,378.3 534.8,382.3 
				534.8,382.3 			"/>
			<rect id="XMLID_86_" x="528" y="333.9" class="st14" width="11.1" height="6.8"/>
			<rect id="XMLID_85_" x="525.4" y="330" class="st19" width="16.2" height="5.9"/>
			<path id="XMLID_82_" class="st41" d="M568,395.1c-3.6,9.4-11.1,16.8-20.4,20.4l-0.1,0.1l-0.1,0.1l-0.1,0.1l-0.1,0.1l-0.1,0h0
				l-0.1,0l-0.1,0h0l-0.1,0l0,0l-0.1,0h0l-0.1,0h0l-0.1,0h0l-0.1,0h0l-0.1,0h0l-0.1,0h0l-0.1,0l0,0l-0.1,0h0l-0.1,0h0l-0.1,0h0
				l-0.1,0h0l-0.1,0l0,0l-0.1,0h0l-0.1,0h0l-0.1,0h0l-0.1,0h0l-0.1,0h0l-0.1,0h0l-0.1,0h0l-0.1,0h0l-0.1,0h0l-0.1,0h0l-0.1,0h0
				l-0.1,0h0l-0.1,0h0l-0.1,0h0l-0.1,0h0l-0.1,0h0l-0.3,0.1h0l-0.3,0.1h0l-0.1,0l-0.1,0h0l-0.1,0h0l-0.1,0h0l-0.1,0h0l-0.1,0h0
				l-0.1,0h0l-0.3,0.1l-0.1,0h0l-0.1,0h0l-0.1,0h0l-0.1,0h0l-0.1,0h0l-0.1,0h0l-0.1,0h0l-0.1,0h0l-0.1,0h0l-0.1,0h0l-0.1,0h0l-0.1,0
				h0l-0.1,0h0l-0.1,0h0l-0.1,0h0c-1.2,0.1-2.5,0.2-3.8,0.2c-1.3,0-2.5-0.1-3.8-0.2c-3.2-0.3-6.2-1.1-9.1-2.2
				c-9.4-3.6-16.8-11.1-20.4-20.4c-1.1-2.9-1.9-5.9-2.2-9.1c-0.1-1.2-0.2-2.5-0.2-3.8s0.1-2.5,0.2-3.8c0.3-3.2,1.1-6.2,2.2-9.1
				c3.6-9.4,11.1-16.8,20.4-20.4c2.3-0.9,4.7-1.6,7.3-2c0.6-0.1,1.2-0.2,1.8-0.2c1.2-0.1,2.5-0.2,3.8-0.2c1.3,0,2.5,0.1,3.8,0.2
				c0.6,0.1,1.2,0.1,1.8,0.2c2.5,0.4,4.9,1.1,7.3,2c9.4,3.6,16.8,11.1,20.4,20.4l0.1,0.1l0.1,0.1l0.1,0.1l0.1,0.1l0,0.1l0,0l0,0.1
				l0,0l0,0.1l0,0l0,0.1l0,0l0,0.1v0l0,0.1l0,0l0,0.1v0l0,0.1v0l0,0.1v0l0,0.1v0l0,0.1v0l0,0.1v0l0,0.1v0l0,0.1v0l0,0.1v0l0,0.1v0
				l0,0.1v0l0,0.1v0l0.1,0.3v0c0.1,0.2,0.1,0.5,0.2,0.7v0c0.4,1.6,0.7,3.3,0.9,5.1c0.1,1.2,0.2,2.5,0.2,3.8s-0.1,2.5-0.2,3.8
				c-0.2,2.1-0.6,4.2-1.2,6.2v0l-0.1,0.3v0l-0.1,0.3v0l0,0.1v0l0,0.1v0l0,0.1v0l0,0.1v0l0,0.1v0l0,0.1v0l0,0.1l0,0l0,0.1l0,0l0,0.1
				v0l0,0.1l0,0l0,0.1l0,0l0,0.1l0,0l0,0.1l-0.1,0.1l-0.1,0.1l-0.1,0.1L568,395.1L568,395.1z M576,366.3c-1.5-3.8-3.4-7.3-5.8-10.5
				c-2.6-3.4-5.6-6.5-9.1-9.1c-3.2-2.4-6.7-4.3-10.5-5.8c-0.4-0.2-0.8-0.3-1.2-0.5c-0.3-0.1-0.7-0.2-1-0.3c-0.5-0.2-1-0.3-1.5-0.5
				c-0.4-0.1-0.8-0.2-1.2-0.3l-0.2,0c-0.4-0.1-0.8-0.2-1.2-0.3c-0.9-0.2-1.8-0.4-2.6-0.5c-0.4-0.1-0.8-0.1-1.1-0.2l-0.2,0
				c-0.8-0.1-1.7-0.2-2.5-0.2c-0.2,0-0.4,0-0.6,0c-0.3,0-0.6,0-0.9,0c-0.5,0-1.1,0-1.6,0c-0.5,0-1.1,0-1.6,0c-0.3,0-0.6,0-0.9,0
				c-0.2,0-0.4,0-0.6,0c-0.9,0.1-1.7,0.1-2.5,0.2l-0.2,0c-0.4,0-0.8,0.1-1.1,0.2c-0.9,0.1-1.8,0.3-2.6,0.5c-0.4,0.1-0.8,0.2-1.2,0.3
				l-0.2,0c-0.4,0.1-0.8,0.2-1.2,0.3c-0.5,0.2-1,0.3-1.5,0.5c-0.3,0.1-0.7,0.2-1,0.3c-0.4,0.1-0.8,0.3-1.2,0.5
				c-11.6,4.5-20.8,13.7-25.3,25.3c-1.9,4.9-3,10.3-3,15.9c0,5.6,1,11,3,15.9c1.2,3.1,2.8,6.1,4.6,8.8c3.2,4.7,7.2,8.7,11.9,11.9
				c2.7,1.9,5.7,3.4,8.8,4.6c4.9,1.9,10.3,3,15.9,3c5.6,0,11-1.1,15.9-3c11.6-4.5,20.8-13.7,25.3-25.3c1.9-4.9,3-10.3,3-15.9
				C579,376.7,577.9,371.3,576,366.3z"/>
		</g>
	</g>
</g>
</svg>
