<?xml version="1.0" encoding="utf-8"?>
<!-- Generator: Adobe Illustrator 20.1.0, SVG Export Plug-In . SVG Version: 6.00 Build 0)  -->
<svg version="1.1" id="Capa_1" xmlns="http://www.w3.org/2000/svg" xmlns:xlink="http://www.w3.org/1999/xlink" x="0px" y="0px"
	 viewBox="0 0 512 512" style="enable-background:new 0 0 512 512;" xml:space="preserve">
<style type="text/css">
	.st0{fill:#FFFFFF;}
</style>
<g>
	<g>
		<path class="st0" d="M402.2,379.7V160.8v-14.6C402.2,65.6,336.6,0,256,0S109.8,65.6,109.8,146.2v14.6v218.9
			c-26.6,17.3-42.9,46.9-42.9,78.9V502c0,5.5,4.5,10,10,10h358.1c5.5,0,10-4.5,10-10v-43.4C445.1,426.6,428.8,396.9,402.2,379.7z
			 M129.8,146.2c0-69.6,56.6-126.2,126.2-126.2s126.2,56.6,126.2,126.2v4.2c-4.4-0.3-8.9-0.8-13.3-1.5c-4.5-0.7-9.1-1.7-13.6-2.9
			c-38.9-10.4-71.9-36.9-90.4-72.9c-1.7-3.3-5.2-5.4-8.9-5.4h0c-3.8,0-7.2,2.1-8.9,5.4c-11.9,23-29.8,42.4-51.8,56.2
			c-12,7.5-25,13.1-38.6,16.7c-4.4,1.2-8.8,2.1-13.2,2.9l-13.6,1.1V146.2z M256,320.5c-23.1,0-44.9-9-61.3-25.4
			c-16.4-16.4-25.4-38.1-25.4-61.3v-10.3v-60.4c12.8-4.1,25.1-9.7,36.6-16.9c20.1-12.5,37.1-29.2,50.1-48.8
			c20.5,31.1,51.1,54.4,86.7,65.7v60.4v10.3C342.7,281.6,303.8,320.5,256,320.5z M270.6,340.6v24h-29.2v-24H270.6z M290.7,334.8
			c41.9-14.4,72.1-54.2,72.1-101v-0.3c7.1-0.1,13.7-2,19.4-5.3v141.6c-9.9-3.5-20.4-5.3-31-5.3h-60.5V334.8z M362.7,213.5v-42.7
			c0.9,0,1.8,0.1,2.7,0.2c9.6,1.5,16.8,9.9,16.8,19.6v3.1C382.2,204.5,373.5,213.3,362.7,213.5z M129.8,190.6
			c0-9.7,7.2-18.1,16.7-19.6c0.9-0.1,1.8-0.2,2.7-0.2v42.6c-10.7-0.2-19.4-9-19.4-19.8V190.6z M129.8,228.3
			c5.7,3.3,12.4,5.2,19.4,5.3v0.3c0,28.5,11.1,55.3,31.3,75.5c11.7,11.7,25.6,20.3,40.8,25.5v29.7h-60.5v0c-10.6,0-21.1,1.8-31,5.3
			V228.3z M425,491.9H87v-33.4c0-26.7,14.5-51.4,37.7-64.5c11-6.2,23.5-9.4,36.1-9.4h190.3c12.7,0,25.2,3.3,36.1,9.4c0,0,0,0,0,0
			c23.3,13.1,37.7,37.8,37.7,64.4L425,491.9L425,491.9z"/>
	</g>
</g>
<g>
	<g>
		<path class="st0" d="M256,413c-12.9,0-12.9,20.1,0,20.1C268.9,433.1,268.9,413,256,413z"/>
	</g>
</g>
<g>
	<g>
		<path class="st0" d="M256,450.8c-12.9,0-12.9,20.1,0,20.1C268.9,470.9,268.9,450.8,256,450.8z"/>
	</g>
</g>
<g>
	<g>
		<path class="st0" d="M364.1,458.9h-56.2c-5.5,0-10,4.5-10,10c0,5.5,4.5,10,10,10h56.2c5.5,0,10-4.5,10-10
			C374.2,463.4,369.7,458.9,364.1,458.9z"/>
	</g>
</g>
<g>
	<g>
		<path class="st0" d="M396.3,458.9c-12.9,0-12.9,20.1,0,20.1C409.2,479,409.2,458.9,396.3,458.9z"/>
	</g>
</g>
</svg>
