<?xml version="1.0" encoding="utf-8"?>
<!-- Generator: Adobe Illustrator 20.1.0, SVG Export Plug-In . SVG Version: 6.00 Build 0)  -->
<svg version="1.1" id="Layer_1" xmlns="http://www.w3.org/2000/svg" xmlns:xlink="http://www.w3.org/1999/xlink" x="0px" y="0px"
	 viewBox="0 0 242 61" style="enable-background:new 0 0 242 61;" xml:space="preserve">
<style type="text/css">
	.st0{fill:#9D69A3;}
	.st1{fill:#B7CECE;}
	.st2{fill:#2A2B2A;}
</style>
<g>
	<path class="st0" d="M37.1,33.8c-0.9,2.6-1.8,4.7-2.9,6.2c-1,1.5-2.1,2.7-3.1,3.5c-1,0.8-2.1,1.3-3.1,1.6c-1,0.2-1.9,0.4-2.8,0.4
		c-1.4,0-2.6-0.2-3.5-0.6c-0.9-0.4-1.7-0.9-2.3-1.6c-0.6-0.7-1-1.4-1.3-2.3c-0.3-0.9-0.4-1.7-0.4-2.6c0-1.1,0.1-2.3,0.4-3.8
		c0.3-1.4,0.6-2.9,1-4.4c0.4-1.5,0.7-3,1-4.4c0.3-1.4,0.4-2.6,0.4-3.6c0-2.2-0.8-3.2-2.3-3.2c-0.6,0-1.1,0.2-1.6,0.5
		c-0.5,0.3-0.9,0.7-1.4,1.3c-0.4,0.5-0.8,1.1-1.1,1.9c-0.3,0.7-0.6,1.5-0.9,2.3L9.1,45.2H0l6.7-31.7h9.1l-0.7,3.3
		c0.7-0.8,1.4-1.4,2-1.8c0.7-0.5,1.3-0.8,2-1.1c0.6-0.2,1.2-0.4,1.8-0.5c0.6-0.1,1.1-0.1,1.6-0.1c1,0,1.9,0.1,2.8,0.4
		c0.9,0.3,1.6,0.7,2.2,1.3c0.6,0.6,1.1,1.3,1.5,2.2c0.4,0.9,0.5,2,0.5,3.2c0,0.8-0.1,1.8-0.2,2.7c-0.2,1-0.3,2-0.6,3
		c-0.2,1-0.5,2-0.7,3c-0.3,1-0.5,2-0.7,2.9c-0.2,0.9-0.4,1.8-0.6,2.6c-0.2,0.8-0.2,1.5-0.2,2.1c0,0.8,0.2,1.4,0.5,1.9
		c0.4,0.5,1,0.7,2,0.7c0.7,0,1.3-0.1,1.8-0.4c0.5-0.3,1-0.6,1.4-1.1c0.4-0.5,0.8-1.1,1.1-1.8c0.3-0.7,0.7-1.4,1-2.3H37.1z"/>
</g>
<g>
	<path class="st0" d="M60.9,33.8c-0.9,1.5-1.9,2.9-3,4.3c-1.1,1.4-2.4,2.7-3.9,3.7c-1.4,1.1-3,2-4.8,2.6c-1.7,0.7-3.7,1-5.7,1
		c-1.5,0-2.9-0.2-4.1-0.6c-1.2-0.4-2.3-1-3.1-1.8c-0.9-0.8-1.5-1.8-2-3.1c-0.5-1.3-0.7-2.8-0.7-4.6c0-1.2,0.1-2.6,0.4-4.2
		c0.2-1.6,0.6-3.2,1.2-4.9c0.5-1.7,1.2-3.3,2.1-4.9c0.9-1.6,2-3,3.2-4.3c1.3-1.3,2.7-2.3,4.4-3.1c1.7-0.8,3.6-1.2,5.8-1.2
		c1.4,0,2.6,0.2,3.5,0.5s1.6,0.8,2.1,1.3s0.9,1.2,1.1,1.9c0.2,0.7,0.3,1.5,0.3,2.3c0,1.8-0.4,3.5-1.2,5.1s-1.9,3-3.2,4.1
		c-1.4,1.2-2.9,2.1-4.7,2.8c-1.8,0.7-3.6,1.1-5.5,1.3c0,0.5-0.1,0.9-0.1,1.3c0,0.4,0,0.8,0,1.2c0,1.1,0.1,2,0.3,2.6
		c0.2,0.7,0.5,1.2,0.9,1.6c0.4,0.4,0.9,0.7,1.4,0.8c0.6,0.2,1.2,0.2,2,0.2c1.3,0,2.4-0.2,3.4-0.5c1-0.3,2-0.8,2.9-1.4
		c0.9-0.6,1.7-1.3,2.5-2c0.8-0.8,1.6-1.6,2.4-2.5H60.9z M43.6,29.3c1.2-0.1,2.4-0.4,3.5-1c1.1-0.6,2.1-1.4,2.9-2.3
		c0.8-1,1.5-2.1,2-3.3c0.5-1.2,0.8-2.5,0.8-3.8c0-0.8-0.1-1.4-0.3-1.9c-0.2-0.5-0.6-0.7-1.2-0.7c-0.8,0-1.6,0.4-2.4,1.2
		c-0.8,0.8-1.5,1.8-2.2,3s-1.3,2.6-1.8,4.2C44.3,26.2,43.9,27.8,43.6,29.3z"/>
</g>
<g>
	<path class="st0" d="M94.3,21.1c-1.2,1.3-2.8,2.4-4.8,3.3c-2,0.9-4.1,1.6-6.4,1.9c-0.2,2.9-0.8,5.6-1.7,7.9c-0.9,2.4-2,4.4-3.3,6
		c-1.3,1.7-2.9,2.9-4.6,3.8c-1.7,0.9-3.6,1.3-5.5,1.3c-1.5,0-2.8-0.2-4.1-0.5c-1.2-0.4-2.3-0.9-3.2-1.7c-0.9-0.8-1.6-1.8-2.1-3.1
		c-0.5-1.3-0.8-2.8-0.8-4.6c0-1.2,0.1-2.6,0.4-4.2c0.3-1.6,0.7-3.2,1.2-4.9c0.6-1.7,1.3-3.3,2.2-4.9c0.9-1.6,2-3,3.3-4.3
		c1.3-1.3,2.8-2.3,4.5-3c1.7-0.8,3.6-1.2,5.8-1.2c5.4,0,8.1,3.4,8.1,10.1v0.1c0.1,0,0.2,0.1,0.3,0.1s0.2,0,0.4,0
		c0.7,0,1.5-0.1,2.4-0.3c0.9-0.2,1.7-0.5,2.6-0.9c0.9-0.4,1.7-0.8,2.5-1.2c0.8-0.5,1.6-0.9,2.3-1.4L94.3,21.1z M77.9,26.5
		c-0.7-0.2-1.1-0.5-1.3-1c-0.2-0.5-0.4-1-0.4-1.7c0-0.9,0.2-1.6,0.5-2.2c0.4-0.6,0.8-1,1.4-1.3c0-0.7-0.1-1.3-0.2-1.7
		c-0.1-0.5-0.2-0.8-0.4-1.1c-0.2-0.3-0.4-0.5-0.7-0.6c-0.3-0.1-0.6-0.2-1.1-0.2c-0.8,0-1.5,0.3-2.2,0.9c-0.7,0.6-1.4,1.4-2,2.3
		c-0.6,1-1.2,2.1-1.7,3.3c-0.5,1.2-1,2.5-1.3,3.9c-0.4,1.3-0.7,2.6-0.9,3.9c-0.2,1.3-0.3,2.5-0.3,3.5c0,1.1,0.1,1.9,0.2,2.6
		c0.1,0.7,0.3,1.2,0.6,1.6c0.3,0.4,0.6,0.6,1,0.8c0.4,0.1,0.9,0.2,1.5,0.2c0.8,0,1.5-0.3,2.3-1c0.8-0.7,1.5-1.6,2.2-2.8
		c0.7-1.2,1.2-2.6,1.7-4.2C77.2,30.1,77.6,28.4,77.9,26.5z"/>
</g>
<g>
	<path class="st1" d="M80.8,61l10.6-49.9h9.1l-1,4.8c0.9-0.8,2-1.4,3.2-1.9c1.2-0.5,2.6-0.8,4.2-0.8c1.1,0,2.1,0.2,3,0.5
		c0.9,0.3,1.8,0.9,2.5,1.7c0.7,0.8,1.2,1.8,1.6,3.1c0.4,1.3,0.6,2.9,0.6,4.7c0,1.4-0.1,3-0.3,4.6c-0.2,1.7-0.5,3.3-1,5
		c-0.5,1.7-1.1,3.3-1.9,4.8c-0.8,1.5-1.7,2.9-2.9,4.1c-1.2,1.2-2.5,2.1-4.1,2.8c-1.6,0.7-3.4,1.1-5.4,1.1c-0.8,0-1.5-0.1-2.1-0.2
		c-0.6-0.1-1.1-0.3-1.5-0.5c-0.4-0.2-0.8-0.4-1.1-0.7c-0.3-0.3-0.5-0.6-0.7-0.9l-3.3,15.4L80.8,61z M94.7,38.6
		c0.1,0.4,0.4,0.7,0.8,1c0.4,0.3,0.9,0.5,1.7,0.5c1.1,0,2.1-0.3,3-0.9c0.9-0.6,1.6-1.3,2.3-2.3c0.7-0.9,1.2-2,1.7-3.2
		c0.5-1.2,0.8-2.4,1.1-3.7c0.3-1.3,0.5-2.5,0.6-3.7c0.1-1.2,0.2-2.3,0.2-3.3c0-1.2-0.1-2.2-0.3-2.9c-0.2-0.7-0.5-1.2-0.8-1.6
		c-0.3-0.4-0.7-0.6-1-0.7c-0.4-0.1-0.7-0.1-1-0.1c-0.7,0-1.5,0.3-2.3,0.8c-0.8,0.5-1.5,1.3-2.1,2.3L94.7,38.6z"/>
</g>
<g>
	<path class="st1" d="M151.8,21.1c-1.2,1.3-2.8,2.4-4.8,3.3c-2,0.9-4.1,1.6-6.4,1.9c-0.2,2.9-0.8,5.6-1.7,7.9c-0.9,2.4-2,4.4-3.3,6
		c-1.3,1.7-2.9,2.9-4.6,3.8c-1.7,0.9-3.6,1.3-5.5,1.3c-1.5,0-2.8-0.2-4.1-0.5c-1.2-0.4-2.3-0.9-3.2-1.7c-0.9-0.8-1.6-1.8-2.1-3.1
		c-0.5-1.3-0.8-2.8-0.8-4.6c0-1.2,0.1-2.6,0.4-4.2c0.3-1.6,0.7-3.2,1.2-4.9c0.6-1.7,1.3-3.3,2.2-4.9c0.9-1.6,2-3,3.3-4.3
		c1.3-1.3,2.8-2.3,4.5-3c1.7-0.8,3.6-1.2,5.8-1.2c5.4,0,8.1,3.4,8.1,10.1v0.1c0.1,0,0.2,0.1,0.3,0.1c0.1,0,0.2,0,0.4,0
		c0.7,0,1.5-0.1,2.4-0.3c0.9-0.2,1.7-0.5,2.6-0.9c0.9-0.4,1.7-0.8,2.5-1.2c0.8-0.5,1.6-0.9,2.3-1.4L151.8,21.1z M135.3,26.5
		c-0.7-0.2-1.1-0.5-1.3-1c-0.2-0.5-0.4-1-0.4-1.7c0-0.9,0.2-1.6,0.5-2.2c0.4-0.6,0.8-1,1.4-1.3c0-0.7-0.1-1.3-0.2-1.7
		c-0.1-0.5-0.2-0.8-0.4-1.1c-0.2-0.3-0.4-0.5-0.7-0.6c-0.3-0.1-0.6-0.2-1.1-0.2c-0.8,0-1.5,0.3-2.2,0.9c-0.7,0.6-1.4,1.4-2,2.3
		c-0.6,1-1.2,2.1-1.7,3.3c-0.5,1.2-1,2.5-1.3,3.9c-0.4,1.3-0.7,2.6-0.9,3.9c-0.2,1.3-0.3,2.5-0.3,3.5c0,1.1,0.1,1.9,0.2,2.6
		c0.1,0.7,0.3,1.2,0.6,1.6c0.3,0.4,0.6,0.6,1,0.8c0.4,0.1,0.9,0.2,1.5,0.2c0.8,0,1.5-0.3,2.3-1c0.8-0.7,1.5-1.6,2.2-2.8
		c0.7-1.2,1.2-2.6,1.7-4.2C134.7,30.1,135.1,28.4,135.3,26.5z"/>
</g>
<g>
	<path class="st1" d="M163.6,33.8c-0.6,1.7-1.3,3.2-2,4.5c-0.7,1.3-1.5,2.3-2.3,3.2c-0.8,0.9-1.6,1.6-2.4,2.1
		c-0.8,0.5-1.6,0.9-2.4,1.2c-0.8,0.3-1.5,0.5-2.2,0.6c-0.7,0.1-1.3,0.2-1.9,0.2c-0.9,0-1.8-0.1-2.7-0.4c-0.8-0.3-1.5-0.7-2.2-1.4
		c-0.6-0.6-1.1-1.4-1.4-2.4c-0.4-0.9-0.5-2.1-0.5-3.4c0-0.6,0-1.2,0.1-1.9c0.1-0.7,0.2-1.4,0.4-2.2l6.8-31.7l9.4-1.3L152.9,35
		c-0.1,0.4-0.2,0.7-0.2,1c0,0.3,0,0.7,0,1c0,0.9,0.2,1.5,0.6,1.8c0.4,0.3,1.1,0.5,1.9,0.5c0.6,0,1.2-0.1,1.8-0.4s1.1-0.7,1.6-1.2
		c0.5-0.5,0.9-1.1,1.3-1.8c0.4-0.7,0.7-1.4,1-2.2H163.6z"/>
</g>
<g>
	<path class="st1" d="M180.5,33.8c-0.6,1.7-1.3,3.2-2,4.5c-0.7,1.3-1.5,2.3-2.3,3.2c-0.8,0.9-1.6,1.6-2.4,2.1
		c-0.8,0.5-1.6,0.9-2.4,1.2c-0.8,0.3-1.5,0.5-2.2,0.6c-0.7,0.1-1.3,0.2-1.9,0.2c-0.9,0-1.8-0.1-2.7-0.4c-0.8-0.3-1.5-0.7-2.2-1.4
		c-0.6-0.6-1.1-1.4-1.4-2.4c-0.4-0.9-0.5-2.1-0.5-3.4c0-0.6,0-1.2,0.1-1.9c0.1-0.7,0.2-1.4,0.4-2.2l4.3-20.3h9.1L169.8,35
		c-0.1,0.4-0.2,0.7-0.2,1c0,0.3,0,0.7,0,1c0,0.9,0.2,1.5,0.6,1.8c0.4,0.3,1.1,0.5,1.9,0.5c0.6,0,1.2-0.1,1.8-0.4s1.1-0.7,1.6-1.2
		c0.5-0.5,0.9-1.1,1.3-1.8c0.4-0.7,0.7-1.4,1-2.2H180.5z M176.6,5.1c0,0.7-0.1,1.4-0.4,2c-0.3,0.6-0.6,1.1-1.1,1.6
		c-0.5,0.4-1,0.8-1.6,1.1c-0.6,0.3-1.3,0.4-2,0.4c-0.7,0-1.4-0.1-2-0.4c-0.6-0.3-1.1-0.6-1.6-1.1c-0.5-0.4-0.8-1-1.1-1.6
		c-0.3-0.6-0.4-1.3-0.4-2c0-0.7,0.1-1.4,0.4-2c0.3-0.6,0.6-1.1,1.1-1.6c0.5-0.5,1-0.8,1.6-1.1c0.6-0.3,1.3-0.4,2-0.4
		c0.7,0,1.4,0.1,2,0.4c0.6,0.3,1.1,0.6,1.6,1.1c0.5,0.5,0.8,1,1.1,1.6C176.5,3.7,176.6,4.4,176.6,5.1z"/>
</g>
<g>
	<path class="st1" d="M196.4,11.5c0.1,2.7,0.2,5.1,0.4,7.1c0.1,2,0.2,3.8,0.3,5.2c0.1,1.5,0.2,2.7,0.3,3.8c0.1,1,0.2,1.9,0.2,2.7
		c0.1,0.8,0.1,1.5,0.2,2.2c0,0.6,0,1.3,0,2c0,1.4-0.2,2.6-0.6,3.7c-0.4,1.1-0.9,2-1.5,2.8s-1.4,1.5-2.3,2.1c-0.9,0.6-1.8,1-2.7,1.4
		c-0.9,0.4-1.9,0.6-2.9,0.8c-1,0.2-1.9,0.2-2.8,0.2c-1.6,0-3-0.2-4.1-0.7c-1.2-0.5-2.1-1.1-2.9-1.9c-0.8-0.8-1.3-1.6-1.7-2.6
		c-0.4-1-0.5-1.9-0.5-2.9c0-0.7,0.1-1.4,0.3-2.1c0.2-0.6,0.4-1.2,0.8-1.7c0.3-0.5,0.7-0.9,1.1-1.3c0.4-0.4,0.8-0.6,1.3-0.9
		c1.8-3.2,3.3-6.3,4.5-9.4c1.2-3.1,2.3-6.2,3.3-9.4L196.4,11.5z M179.2,36.1c0,1.5,0.3,2.6,0.9,3.3c0.6,0.7,1.6,1.1,3,1.1
		c0.7,0,1.4-0.1,2-0.3c0.7-0.2,1.2-0.5,1.8-1c0.5-0.5,0.9-1.1,1.2-1.8s0.5-1.7,0.5-2.8c0-0.5,0-1.1,0-1.6c0-0.5-0.1-1-0.1-1.6
		c0-0.6-0.1-1.2-0.2-1.9c-0.1-0.7-0.2-1.5-0.2-2.4c-0.1-0.9-0.2-2-0.3-3.2c-0.1-1.2-0.2-2.6-0.3-4.3c-0.6,2.1-1.4,4.1-2.3,6
		c-0.9,1.9-1.8,3.9-2.9,6c0.4,0.2,0.8,0.5,1,0.9c0.3,0.4,0.4,0.8,0.4,1.3c0,0.4-0.1,0.8-0.2,1.1c-0.1,0.4-0.3,0.7-0.6,1
		c-0.2,0.3-0.5,0.5-0.9,0.7c-0.3,0.2-0.7,0.3-1.2,0.3c-0.4,0-0.7-0.1-1-0.2C179.6,36.7,179.4,36.5,179.2,36.1z"/>
</g>
<g>
	<path class="st2" d="M205.1,42.3c0,0.4-0.1,0.8-0.2,1.2c-0.2,0.4-0.4,0.7-0.7,1s-0.6,0.5-1,0.6s-0.8,0.2-1.2,0.2s-0.8-0.1-1.2-0.2
		c-0.4-0.2-0.7-0.4-1-0.6s-0.5-0.6-0.6-1c-0.2-0.4-0.2-0.8-0.2-1.2c0-0.4,0.1-0.8,0.2-1.2c0.2-0.4,0.4-0.7,0.6-1
		c0.3-0.3,0.6-0.5,1-0.6c0.4-0.2,0.8-0.2,1.2-0.2s0.8,0.1,1.2,0.2c0.4,0.2,0.7,0.4,1,0.6c0.3,0.3,0.5,0.6,0.7,1
		C205,41.5,205.1,41.9,205.1,42.3z"/>
</g>
<g>
	<path class="st2" d="M221.5,48.2c-0.3,1.4-0.7,2.5-1.2,3.3c-0.5,0.8-1.1,1.5-1.7,2c-0.6,0.5-1.3,0.8-2,0.9c-0.7,0.2-1.3,0.2-2,0.2
		c-0.6,0-1.1-0.1-1.6-0.2c-0.5-0.2-1-0.4-1.3-0.7c-0.4-0.3-0.7-0.7-0.9-1.2c-0.2-0.5-0.3-1-0.3-1.6c0-0.8,0.2-1.5,0.6-2.1
		c0.4-0.6,0.9-1.1,1.5-1.6c0.6-0.5,1.3-0.8,2-1.2s1.5-0.6,2.2-0.8l0.5-2c-0.6,0.6-1.2,1.1-2,1.5s-1.6,0.6-2.6,0.6
		c-0.7,0-1.3-0.1-1.9-0.3c-0.6-0.2-1.1-0.6-1.6-1s-0.8-1.1-1.1-1.9c-0.3-0.8-0.4-1.7-0.4-2.9c0-0.9,0.1-1.8,0.3-2.8s0.4-2,0.8-3
		s0.8-1.9,1.3-2.8c0.5-0.9,1.2-1.7,1.9-2.4c0.7-0.7,1.5-1.3,2.5-1.7c0.9-0.4,1.9-0.6,3-0.6c1.1,0,1.9,0.2,2.3,0.6s0.7,0.8,0.7,1.4
		v0.2l0.4-2h5.5l-3.8,17.6c0.6-0.2,1.1-0.4,1.6-0.7c0.5-0.3,0.9-0.6,1.3-1.1c0.4-0.4,0.7-0.9,1.1-1.5c0.3-0.6,0.6-1.3,0.9-2.1h1.6
		c-0.4,1.3-0.8,2.3-1.4,3.2c-0.5,0.8-1.1,1.5-1.7,2.1c-0.6,0.5-1.2,0.9-1.8,1.2c-0.6,0.3-1.2,0.5-1.8,0.6L221.5,48.2z M216.2,47.2
		c-0.5,0.2-1,0.4-1.4,0.6s-0.8,0.5-1.2,0.7c-0.3,0.3-0.6,0.5-0.8,0.9c-0.2,0.3-0.3,0.7-0.3,1c0,0.1,0,0.3,0.1,0.4
		c0,0.1,0.1,0.3,0.2,0.4c0.1,0.1,0.2,0.2,0.4,0.3c0.2,0.1,0.4,0.1,0.6,0.1c0.4,0,0.8-0.3,1.2-0.8c0.4-0.6,0.7-1.4,1-2.6L216.2,47.2z
		 M219.9,29.7c0-0.1,0-0.2-0.1-0.4c0-0.2-0.1-0.3-0.3-0.5c-0.1-0.1-0.3-0.3-0.5-0.4c-0.2-0.1-0.5-0.2-0.8-0.2c-0.5,0-1,0.2-1.5,0.5
		s-0.9,0.8-1.3,1.4c-0.4,0.6-0.7,1.2-1.1,2c-0.3,0.7-0.6,1.5-0.8,2.3c-0.2,0.8-0.4,1.5-0.5,2.3c-0.1,0.7-0.2,1.4-0.2,2
		c0,0.7,0.1,1.3,0.2,1.7c0.1,0.4,0.3,0.7,0.5,0.9c0.2,0.2,0.4,0.3,0.6,0.3c0.2,0,0.4,0.1,0.6,0.1c0.3,0,0.5-0.1,0.8-0.2
		c0.3-0.1,0.6-0.3,0.9-0.6c0.3-0.2,0.6-0.6,0.8-0.9c0.2-0.4,0.4-0.8,0.5-1.3L219.9,29.7z"/>
</g>
<g>
	<path class="st2" d="M225.7,45.2l4-19h5.5l-0.5,2.4c0.3-0.3,0.7-0.6,1-0.9s0.7-0.5,1.1-0.8s0.8-0.4,1.2-0.5
		c0.4-0.1,0.8-0.2,1.3-0.2c0.4,0,0.8,0.1,1.1,0.2s0.6,0.4,0.8,0.6c0.2,0.3,0.4,0.6,0.5,0.9c0.1,0.3,0.2,0.7,0.2,1.1
		c0,0.3-0.1,0.7-0.2,1c-0.1,0.3-0.3,0.6-0.5,0.9c-0.2,0.3-0.5,0.5-0.9,0.6s-0.7,0.3-1.2,0.3c-0.4,0-0.6-0.1-0.8-0.2
		s-0.3-0.3-0.4-0.5s-0.2-0.4-0.2-0.6c0-0.2-0.1-0.4-0.1-0.6c0-0.2-0.1-0.3-0.2-0.5c-0.1-0.1-0.2-0.2-0.4-0.2c-0.6,0-1.1,0.1-1.5,0.4
		c-0.4,0.3-0.8,0.6-1.3,1l-3,14.4H225.7z"/>
</g>
</svg>
