<?xml version="1.0" encoding="utf-8"?>
<!-- Generator: Adobe Illustrator 20.1.0, SVG Export Plug-In . SVG Version: 6.00 Build 0)  -->
<svg version="1.1" id="Capa_1" xmlns="http://www.w3.org/2000/svg" xmlns:xlink="http://www.w3.org/1999/xlink" x="0px" y="0px"
	 viewBox="0 0 512 512" style="enable-background:new 0 0 512 512;" xml:space="preserve">
<style type="text/css">
	.st0{fill:#FFFFFF;}
</style>
<g>
	<g>
		<path class="st0" d="M350.7,359.1h-59v-31.8c43.7-14.9,75.2-56.4,75.2-105v-0.8c22.9-0.8,41.2-19.7,41.2-42.7
			c0-11.4-4.4-22.2-12.5-30.3c-2.3-2.3-4.8-4.2-7.4-5.9c0.4-1,0.6-2.2,0.6-3.3v-6.4C388.8,59.6,329.2,0,256,0
			c-23.5,0-46.5,6.2-66.7,18c0,0,0,0,0,0c-40.7,23.7-66,67.7-66,114.8v10.1c-11.8,7.6-19.4,20.9-19.4,35.9
			c0,11.4,4.4,22.2,12.5,30.3c7.7,7.7,17.9,12.1,28.7,12.5v0.8c0,29.6,11.5,57.5,32.5,78.5c12.2,12.2,26.8,21.2,42.7,26.6v31.8h-7.9
			c0,0,0,0,0,0h-51.1c-56.3,0-102.1,45.8-102.1,102.1V502c0,5.5,4.5,10,10,10h185.2h3.2h185.2c5.5,0,10-4.5,10-10v-40.8
			C452.9,404.9,407,359.1,350.7,359.1z M303.8,379.1h10.1v0l-28.3,48.9l-15.3-15.3L303.8,379.1z M275.4,379.1L256,398.5l-19.4-19.4
			H275.4z M240.3,359.1v-25.9l0,0h31.3v25.9H240.3z M388.1,178.7c0,12-9.3,21.8-21.1,22.6v-45.3c5.5,0.4,10.6,2.7,14.5,6.6
			C385.7,166.9,388.1,172.6,388.1,178.7z M256,20.1c61.6,0,111.9,49.7,112.7,111.2c-4.3,0.9-8.6,1.6-12.9,2c0,0,0,0,0,0
			c-5.2,0.6-10.4,0.9-15.5,0.9c-39.9,0-77.9-17.2-104.4-47.1c-14.1-15.9-24.4-34.9-30-55.3C221.4,24.1,238.6,20.1,256,20.1z
			 M145.1,201.3c-5.5-0.4-10.6-2.7-14.5-6.6c-4.3-4.3-6.6-10-6.6-16c0-11.7,8.7-21.4,20.3-22.6c0.3,0,0.5,0,0.8-0.1V201.3z
			 M153.1,134.5C153.1,134.5,153.1,134.5,153.1,134.5c-3.2,0.6-6.5,1.1-9.8,1.4v-3.2h0c0-35.5,16.9-68.9,44.9-90
			c5.9,18.7,15.3,36.3,27.6,51.6C200.7,115.1,178.3,129.5,153.1,134.5C153.1,134.5,153.1,134.5,153.1,134.5z M191.8,286.5
			c-17.2-17.2-26.6-40-26.6-64.3v-10.8v-59.1c25.5-6.9,48.2-22,64.4-42.8c29.6,28.6,69.3,44.7,110.7,44.7c2.2,0,4.4-0.1,6.6-0.2
			v57.3v10.8c0,50.1-40.8,90.9-90.9,90.9C231.7,313.1,208.9,303.6,191.8,286.5z M208.2,379.1L208.2,379.1l33.6,33.6l-15.3,15.3
			l-28.3-48.9H208.2z M79.2,491.9v-30.7c0-45.2,36.8-82,82-82h13.7l65.3,112.8L79.2,491.9L79.2,491.9z M256,479.1l-19.1-33.1
			l19.1-19.1l19.1,19.1L256,479.1z M432.8,491.9h-161l65.3-112.8h13.7c45.2,0,82,36.8,82,82L432.8,491.9L432.8,491.9z"/>
	</g>
</g>
<g>
	<g>
		<path class="st0" d="M374.2,458.9H318c-5.5,0-10,4.5-10,10c0,5.5,4.5,10,10,10h56.2c5.5,0,10-4.5,10-10
			C384.2,463.4,379.7,458.9,374.2,458.9z"/>
	</g>
</g>
<g>
	<g>
		<path class="st0" d="M406.3,458.9c-12.9,0-12.9,20.1,0,20.1C419.2,479,419.2,458.9,406.3,458.9z"/>
	</g>
</g>
</svg>
