<svg xmlns="http://www.w3.org/2000/svg" width="82.9" height="47.7" x="0px" y="0px" viewBox="0 0 82.9 47.7" style="enable-background:new 0 0 82.9 47.7;" >
	<path d="M50.9,20.4c-1.9,0-3.5,1.6-3.5,3.5c0,3.3-2.7,5.9-5.9,5.9c-3.3,0-5.9-2.7-5.9-5.9s2.7-5.9,5.9-5.9
		c1.2,0,2.4,0.4,3.4,1.1c1.6,1.1,3.8,0.8,4.9-0.8c1.1-1.6,0.8-3.8-0.8-4.9c-2.2-1.6-4.8-2.4-7.5-2.4c-7.1,0-12.9,5.8-12.9,12.9
		s5.8,12.9,12.9,12.9S54.4,31,54.4,23.9C54.4,21.9,52.8,20.4,50.9,20.4 M81.4,21.8C71.5,8,57,0,41.4,0s-30.1,8-40,21.8l-1.4,2l1.4,2
		c9.9,13.9,24.5,21.8,40,21.8s30.1-8,40-21.8l1.4-2L81.4,21.8z M41.4,40.7c-12.5,0-24.3-6.1-32.8-16.9C17.1,13.1,29,7,41.4,7
		s24.3,6.1,32.8,16.9C65.7,34.6,53.9,40.7,41.4,40.7"/>
</svg>
